<?xml version="1.0" encoding="UTF-8" standalone="no"?>
<svg
   xmlns:dc="http://purl.org/dc/elements/1.1/"
   xmlns:cc="http://creativecommons.org/ns#"
   xmlns:rdf="http://www.w3.org/1999/02/22-rdf-syntax-ns#"
   xmlns:svg="http://www.w3.org/2000/svg"
   xmlns="http://www.w3.org/2000/svg"
   xmlns:sodipodi="http://sodipodi.sourceforge.net/DTD/sodipodi-0.dtd"
   xmlns:inkscape="http://www.inkscape.org/namespaces/inkscape"
   inkscape:version="1.0 (4035a4fb49, 2020-05-01)"
   sodipodi:docname="fog.svg"
   id="svg20"
   version="1.1"
   class="feather feather-sun"
   stroke-linejoin="round"
   stroke-linecap="round"
   stroke-width="2"
   stroke="#ff8400"
   fill="none"
   viewBox="0 0 24 24"
   height="72"
   width="72">
  <metadata
     id="metadata26">
    <rdf:RDF>
      <cc:Work
         rdf:about="">
        <dc:format>image/svg+xml</dc:format>
        <dc:type
           rdf:resource="http://purl.org/dc/dcmitype/StillImage" />
        <dc:title></dc:title>
      </cc:Work>
    </rdf:RDF>
  </metadata>
  <defs
     id="defs24" />
  <sodipodi:namedview
     inkscape:current-layer="svg20"
     inkscape:window-maximized="1"
     inkscape:window-y="-9"
     inkscape:window-x="-9"
     inkscape:cy="39.46988"
     inkscape:cx="19.301205"
     inkscape:zoom="11.527778"
     showgrid="false"
     id="namedview22"
     inkscape:window-height="1001"
     inkscape:window-width="1920"
     inkscape:pageshadow="2"
     inkscape:pageopacity="0"
     guidetolerance="10"
     gridtolerance="10"
     objecttolerance="10"
     borderopacity="1"
     bordercolor="#666666"
     pagecolor="#ffffff" />
  <ellipse
     ry="1.8361495"
     rx="1.807171"
     cy="10.163855"
     cx="11.754003"
     id="path62"
     style="fill:#ffffff;stroke:#000000;stroke-width:0.333333" />
  <path
     id="path1014"
     d="m 11.942169,13.619277 2.86265,-2.371084 -0.954217,-2.3710848 -1.639168,-0.099303"
     style="fill:none;stroke:#000000;stroke-width:0.333333px;stroke-linecap:butt;stroke-linejoin:miter;stroke-opacity:1" />
  <path
     id="path70"
     d="m 11.826506,12.144578 0.115663,5.956626 -1.763856,3.151808 H 9.3686746"
     style="fill:none;stroke:#000000;stroke-width:0.333333px;stroke-linecap:butt;stroke-linejoin:miter;stroke-opacity:1" />
  <path
     id="path72"
     d="m 11.942169,18.101204 1.792771,3.093976 h 0.809638"
     style="fill:none;stroke:#000000;stroke-width:0.333333px;stroke-linecap:butt;stroke-linejoin:miter;stroke-opacity:1" />
  <path
     id="path86"
     d="m 10.987952,9.2240962 c 0,0 -0.20241,0.693976 0.05783,0.8096388"
     style="fill:none;stroke:#000000;stroke-width:0.333333px;stroke-linecap:butt;stroke-linejoin:miter;stroke-opacity:1" />
  <path
     style="fill:none;stroke:#000000;stroke-width:0.333333px;stroke-linecap:butt;stroke-linejoin:miter;stroke-opacity:1"
     d="m 12.330174,9.2291101 c 0,0 -0.20241,0.693976 0.05783,0.8096389"
     id="path86-2" />
  <path
     id="path103"
     d="m 10.872289,10.843373 c 0,0 1.040964,-0.375903 1.359036,0.05783"
     style="fill:none;stroke:#000000;stroke-width:0.333333px;stroke-linecap:butt;stroke-linejoin:miter;stroke-opacity:1" />
  <path
     transform="matrix(10.173096,0,0,4.945669,-13.414601,-29.679098)"
     inkscape:transform-center-y="-0.031807485"
     inkscape:transform-center-x="0.0063755893"
     d="M 2.3132529,8.1253015 2.1452756,8.0416129 2.1468766,8.2292763 2.0508107,8.0680576 1.950699,8.2267957 1.9570446,8.0392328 1.787005,8.1186473 1.8937474,7.96429 1.7077663,7.9391674 1.8810156,7.867023 1.7381406,7.7453396 1.9228914,7.7783136 1.8684844,7.5987029 2.0060795,7.7263261 2.0574143,7.5458133 2.1041683,7.7275665 2.2449465,7.6034631 2.1860153,7.7816407 2.3715408,7.7533487 2.2256347,7.8713806 2.3970044,7.9478826 2.2104475,7.9682945 Z"
     inkscape:randomized="0"
     inkscape:rounded="0"
     inkscape:flatsided="false"
     sodipodi:arg2="1.0122417"
     sodipodi:arg1="0.72664234"
     sodipodi:r2="0.17409535"
     sodipodi:r1="0.3481907"
     sodipodi:cy="7.8939762"
     sodipodi:cx="2.0530119"
     sodipodi:sides="11"
     id="path989"
     style="opacity:0.3;fill:#b3b3b3;stroke:#cccccc;stroke-width:0.333333"
     sodipodi:type="star" />
  <path
     sodipodi:type="star"
     style="opacity:0.3;fill:#b3b3b3;stroke:#cccccc;stroke-width:0.333333"
     id="path989-2"
     sodipodi:sides="11"
     sodipodi:cx="2.0530119"
     sodipodi:cy="7.8939762"
     sodipodi:r1="0.3481907"
     sodipodi:r2="0.17409535"
     sodipodi:arg1="0.72664234"
     sodipodi:arg2="1.0122417"
     inkscape:flatsided="false"
     inkscape:rounded="0"
     inkscape:randomized="0"
     d="M 2.3132529,8.1253015 2.1452756,8.0416129 2.1468766,8.2292763 2.0508107,8.0680576 1.950699,8.2267957 1.9570446,8.0392328 1.787005,8.1186473 1.8937474,7.96429 1.7077663,7.9391674 1.8810156,7.867023 1.7381406,7.7453396 1.9228914,7.7783136 1.8684844,7.5987029 2.0060795,7.7263261 2.0574143,7.5458133 2.1041683,7.7275665 2.2449465,7.6034631 2.1860153,7.7816407 2.3715408,7.7533487 2.2256347,7.8713806 2.3970044,7.9478826 2.2104475,7.9682945 Z"
     inkscape:transform-center-x="0.006952688"
     inkscape:transform-center-y="-0.044538857"
     transform="matrix(11.097508,0,0,6.9251041,-10.547454,-47.094334)" />
  <path
     sodipodi:type="star"
     style="opacity:0.3;fill:#b3b3b3;stroke:#cccccc;stroke-width:0.333333"
     id="path989-0"
     sodipodi:sides="11"
     sodipodi:cx="2.0530119"
     sodipodi:cy="7.8939762"
     sodipodi:r1="0.3481907"
     sodipodi:r2="0.17409535"
     sodipodi:arg1="0.72664234"
     sodipodi:arg2="1.0122417"
     inkscape:flatsided="false"
     inkscape:rounded="0"
     inkscape:randomized="0"
     d="M 2.3132529,8.1253015 2.1452756,8.0416129 2.1468766,8.2292763 2.0508107,8.0680576 1.950699,8.2267957 1.9570446,8.0392328 1.787005,8.1186473 1.8937474,7.96429 1.7077663,7.9391674 1.8810156,7.867023 1.7381406,7.7453396 1.9228914,7.7783136 1.8684844,7.5987029 2.0060795,7.7263261 2.0574143,7.5458133 2.1041683,7.7275665 2.2449465,7.6034631 2.1860153,7.7816407 2.3715408,7.7533487 2.2256347,7.8713806 2.3970044,7.9478826 2.2104475,7.9682945 Z"
     inkscape:transform-center-x="0.0073200815"
     inkscape:transform-center-y="-0.029997394"
     transform="matrix(11.68141,0,0,4.664092,-9.8307759,-26.523053)" />
  <path
     id="path1016"
     d="m 11.653012,13.503614 -2.7759038,1.040964 2.7180728,1.416868 0.115662,0.66506"
     style="fill:none;stroke:#000000;stroke-width:0.333333px;stroke-linecap:butt;stroke-linejoin:miter;stroke-opacity:1" />
</svg>
