<?xml version="1.0" encoding="UTF-8" standalone="no"?>
<svg
   xmlns:dc="http://purl.org/dc/elements/1.1/"
   xmlns:cc="http://creativecommons.org/ns#"
   xmlns:rdf="http://www.w3.org/1999/02/22-rdf-syntax-ns#"
   xmlns:svg="http://www.w3.org/2000/svg"
   xmlns="http://www.w3.org/2000/svg"
   xmlns:sodipodi="http://sodipodi.sourceforge.net/DTD/sodipodi-0.dtd"
   xmlns:inkscape="http://www.inkscape.org/namespaces/inkscape"
   inkscape:version="1.0 (4035a4fb49, 2020-05-01)"
   sodipodi:docname="mycloud.svg"
   id="svg22"
   version="1.1"
   class="feather feather-cloud"
   stroke-linejoin="round"
   stroke-linecap="round"
   stroke-width="2"
   stroke="#787878"
   fill="none"
   viewBox="0 0 24 24"
   height="72"
   width="72">
  <metadata
     id="metadata28">
    <rdf:RDF>
      <cc:Work
         rdf:about="">
        <dc:format>image/svg+xml</dc:format>
        <dc:type
           rdf:resource="http://purl.org/dc/dcmitype/StillImage" />
        <dc:title></dc:title>
      </cc:Work>
    </rdf:RDF>
  </metadata>
  <defs
     id="defs26" />
  <sodipodi:namedview
     inkscape:current-layer="svg22"
     inkscape:window-maximized="1"
     inkscape:window-y="-9"
     inkscape:window-x="-9"
     inkscape:cy="34.287605"
     inkscape:cx="50.264916"
     inkscape:zoom="11.527778"
     showgrid="false"
     id="namedview24"
     inkscape:window-height="1001"
     inkscape:window-width="1920"
     inkscape:pageshadow="2"
     inkscape:pageopacity="0"
     guidetolerance="10"
     gridtolerance="10"
     objecttolerance="10"
     borderopacity="1"
     bordercolor="#666666"
     pagecolor="#ffffff"
     inkscape:document-rotation="0" />
  <path
     sodipodi:type="star"
     style="opacity:1;fill:#787878;fill-opacity:1;stroke:#787878;stroke-width:0.333333;stroke-opacity:1"
     id="path989-0"
     sodipodi:sides="11"
     sodipodi:cx="2.0530119"
     sodipodi:cy="7.8939762"
     sodipodi:r1="0.3481907"
     sodipodi:r2="0.17409535"
     sodipodi:arg1="0.72664234"
     sodipodi:arg2="1.0122417"
     inkscape:flatsided="false"
     inkscape:rounded="0"
     inkscape:randomized="0"
     d="M 2.3132529,8.1253015 2.1452756,8.0416129 2.1468766,8.2292763 2.0508107,8.0680576 1.950699,8.2267957 1.9570446,8.0392328 1.787005,8.1186473 1.8937474,7.96429 1.7077663,7.9391674 1.8810156,7.867023 1.7381406,7.7453396 1.9228914,7.7783136 1.8684844,7.5987029 2.0060795,7.7263261 2.0574143,7.5458133 2.1041683,7.7275665 2.2449465,7.6034631 2.1860153,7.7816407 2.3715408,7.7533487 2.2256347,7.8713806 2.3970044,7.9478826 2.2104475,7.9682945 Z"
     inkscape:transform-center-x="0.02808304"
     inkscape:transform-center-y="-0.066928731"
     transform="matrix(23.095334,0.41430486,-0.27462348,13.572955,-33.240011,-96.812869)" />
  <path
     sodipodi:type="star"
     style="opacity:1;fill:#b3b3b3;fill-opacity:1;stroke:#b3b3b3;stroke-width:0.666667;stroke-opacity:1"
     id="path15-1"
     sodipodi:sides="11"
     sodipodi:cx="2.0855391"
     sodipodi:cy="2.2082179"
     sodipodi:r1="0.75402814"
     sodipodi:r2="0.37701407"
     sodipodi:arg1="-1.3521274"
     sodipodi:arg2="-1.066528"
     inkscape:flatsided="false"
     inkscape:rounded="0"
     inkscape:randomized="0"
     d="M 2.2491108,1.4721453 2.2676998,1.8781314 2.6210952,1.6774278 2.4172407,2.029015 2.8230443,2.0512323 2.4614686,2.2367942 2.7908408,2.4748786 2.3863416,2.4355007 2.5347089,2.8138621 2.2157119,2.5620464 2.1359688,2.9605577 2.0037532,2.5762541 1.7212177,2.8683908 1.817761,2.4736129 1.422136,2.5666236 1.7167865,2.2867106 1.3336801,2.1510652 1.7328883,2.0748874 1.4839341,1.7536523 1.8609542,1.9053957 1.8251935,1.5005607 2.0603243,1.8320479 Z"
     inkscape:transform-center-x="0.058061016"
     inkscape:transform-center-y="0.032694746"
     transform="matrix(8.0900076,0,0,4.019785,-7.8849937,6.8629163)" />
  <path
     transform="matrix(7.2743669,0,0,3.6145074,-6.0777689,7.9012568)"
     inkscape:transform-center-y="0.029398757"
     inkscape:transform-center-x="0.052207325"
     d="M 2.2491108,1.4721453 2.2676998,1.8781314 2.6210952,1.6774278 2.4172407,2.029015 2.8230443,2.0512323 2.4614686,2.2367942 2.7908408,2.4748786 2.3863416,2.4355007 2.5347089,2.8138621 2.2157119,2.5620464 2.1359688,2.9605577 2.0037532,2.5762541 1.7212177,2.8683908 1.817761,2.4736129 1.422136,2.5666236 1.7167865,2.2867106 1.3336801,2.1510652 1.7328883,2.0748874 1.4839341,1.7536523 1.8609542,1.9053957 1.8251935,1.5005607 2.0603243,1.8320479 Z"
     inkscape:randomized="0"
     inkscape:rounded="0"
     inkscape:flatsided="false"
     sodipodi:arg2="-1.066528"
     sodipodi:arg1="-1.3521274"
     sodipodi:r2="0.37701407"
     sodipodi:r1="0.75402814"
     sodipodi:cy="2.2082179"
     sodipodi:cx="2.0855391"
     sodipodi:sides="11"
     id="path15"
     style="opacity:1;fill:#ffffff;fill-opacity:1;stroke:#ffffff;stroke-width:0.666667;stroke-opacity:1"
     sodipodi:type="star" />
  <path
     transform="matrix(4.6429505,0,0,2.3070018,9.042741,10.434216)"
     inkscape:transform-center-y="0.01876371"
     inkscape:transform-center-x="0.033321796"
     d="M 2.2491108,1.4721453 2.2676998,1.8781314 2.6210952,1.6774278 2.4172407,2.029015 2.8230443,2.0512323 2.4614686,2.2367942 2.7908408,2.4748786 2.3863416,2.4355007 2.5347089,2.8138621 2.2157119,2.5620464 2.1359688,2.9605577 2.0037532,2.5762541 1.7212177,2.8683908 1.817761,2.4736129 1.422136,2.5666236 1.7167865,2.2867106 1.3336801,2.1510652 1.7328883,2.0748874 1.4839341,1.7536523 1.8609542,1.9053957 1.8251935,1.5005607 2.0603243,1.8320479 Z"
     inkscape:randomized="0"
     inkscape:rounded="0"
     inkscape:flatsided="false"
     sodipodi:arg2="-1.066528"
     sodipodi:arg1="-1.3521274"
     sodipodi:r2="0.37701407"
     sodipodi:r1="0.75402814"
     sodipodi:cy="2.2082179"
     sodipodi:cx="2.0855391"
     sodipodi:sides="11"
     id="path15-1-1"
     style="opacity:1;fill:#b3b3b3;fill-opacity:1;stroke:#b3b3b3;stroke-width:0.666667;stroke-opacity:1"
     sodipodi:type="star" />
  <path
     sodipodi:type="star"
     style="opacity:1;fill:#ffffff;fill-opacity:1;stroke:#ffffff;stroke-width:0.666667;stroke-opacity:1"
     id="path15-9"
     sodipodi:sides="11"
     sodipodi:cx="2.0855391"
     sodipodi:cy="2.2082179"
     sodipodi:r1="0.75402814"
     sodipodi:r2="0.37701407"
     sodipodi:arg1="-1.3521274"
     sodipodi:arg2="-1.066528"
     inkscape:flatsided="false"
     inkscape:rounded="0"
     inkscape:randomized="0"
     d="M 2.2491108,1.4721453 2.2676998,1.8781314 2.6210952,1.6774278 2.4172407,2.029015 2.8230443,2.0512323 2.4614686,2.2367942 2.7908408,2.4748786 2.3863416,2.4355007 2.5347089,2.8138621 2.2157119,2.5620464 2.1359688,2.9605577 2.0037532,2.5762541 1.7212177,2.8683908 1.817761,2.4736129 1.422136,2.5666236 1.7167865,2.2867106 1.3336801,2.1510652 1.7328883,2.0748874 1.4839341,1.7536523 1.8609542,1.9053957 1.8251935,1.5005607 2.0603243,1.8320479 Z"
     inkscape:transform-center-x="0.029962338"
     inkscape:transform-center-y="0.016871882"
     transform="matrix(4.1748447,0,0,2.0744082,10.079929,11.030131)" />
</svg>
