<?xml version="1.0" encoding="UTF-8" standalone="no"?>
<svg
   xmlns:dc="http://purl.org/dc/elements/1.1/"
   xmlns:cc="http://creativecommons.org/ns#"
   xmlns:rdf="http://www.w3.org/1999/02/22-rdf-syntax-ns#"
   xmlns:svg="http://www.w3.org/2000/svg"
   xmlns="http://www.w3.org/2000/svg"
   xmlns:sodipodi="http://sodipodi.sourceforge.net/DTD/sodipodi-0.dtd"
   xmlns:inkscape="http://www.inkscape.org/namespaces/inkscape"
   width="72"
   height="72"
   viewBox="0 0 24 24"
   fill="none"
   stroke="#4db1f8"
   stroke-width="2"
   stroke-linecap="round"
   stroke-linejoin="round"
   class="feather feather-cloud-drizzle"
   version="1.1"
   id="svg16"
   sodipodi:docname="mydrizzle.svg"
   inkscape:version="1.0 (4035a4fb49, 2020-05-01)">
  <metadata
     id="metadata22">
    <rdf:RDF>
      <cc:Work
         rdf:about="">
        <dc:format>image/svg+xml</dc:format>
        <dc:type
           rdf:resource="http://purl.org/dc/dcmitype/StillImage" />
        <dc:title></dc:title>
      </cc:Work>
    </rdf:RDF>
  </metadata>
  <defs
     id="defs20" />
  <sodipodi:namedview
     inkscape:document-rotation="0"
     pagecolor="#ffffff"
     bordercolor="#666666"
     borderopacity="1"
     objecttolerance="10"
     gridtolerance="10"
     guidetolerance="10"
     inkscape:pageopacity="0"
     inkscape:pageshadow="2"
     inkscape:window-width="1920"
     inkscape:window-height="1001"
     id="namedview18"
     showgrid="false"
     inkscape:zoom="8.15137"
     inkscape:cx="36"
     inkscape:cy="40.907151"
     inkscape:window-x="-9"
     inkscape:window-y="-9"
     inkscape:window-maximized="1"
     inkscape:current-layer="svg16" />
  <path
     d="m 15.496799,16.847327 c 0.0061,0.189844 0.0051,0.379834 0.0043,0.569747 0.0015,0.219575 -1.98e-4,0.439151 6.33e-4,0.658726 10e-4,0.18752 -0.002,0.375028 -0.0023,0.562541 -7e-4,0.105101 -7.66e-4,0.210204 -0.001,0.315307 0,0 0.379333,-0.19328 0.379333,-0.19328 v 0 c -2.54e-4,-0.104753 -3.29e-4,-0.209506 -10e-4,-0.314258 -3.07e-4,-0.186733 -0.0033,-0.373461 -0.0023,-0.560202 8.34e-4,-0.219796 -9e-4,-0.439592 6.34e-4,-0.659388 -8.34e-4,-0.191384 -0.0017,-0.38284 0.0043,-0.574156 0,0 -0.382637,0.194963 -0.382637,0.194963 z"
     id="path67-6-9"
     style="opacity:1;fill:#4db1f8;fill-opacity:1;stroke:#4db1f8;stroke-width:0.666667;stroke-opacity:1" />
  <path
     style="opacity:1;fill:#4db1f8;fill-opacity:1;stroke:#4db1f8;stroke-width:0.666667;stroke-opacity:1"
     id="path67-5-6-8"
     d="m 15.46496,21.439056 c 0.0061,0.189844 0.0051,0.379834 0.0043,0.569747 0.0015,0.219575 -1.97e-4,0.439151 6.33e-4,0.658726 10e-4,0.18752 -0.002,0.375028 -0.0023,0.562541 -7e-4,0.105101 -7.66e-4,0.210204 -0.001,0.315307 0,0 0.379333,-0.19328 0.379333,-0.19328 v 0 c -2.54e-4,-0.104753 -3.28e-4,-0.209506 -0.001,-0.314258 -3.06e-4,-0.186733 -0.0033,-0.373461 -0.0023,-0.560202 8.34e-4,-0.219796 -9e-4,-0.439592 6.34e-4,-0.659388 -8.34e-4,-0.191384 -0.0017,-0.38284 0.0043,-0.574156 0,0 -0.382637,0.194963 -0.382637,0.194963 z" />
  <path
     d="m 7.2110909,14.470779 c 0.00605,0.189844 0.00514,0.379834 0.00433,0.569747 0.00153,0.219575 -1.973e-4,0.439151 6.333e-4,0.658726 10e-4,0.18752 -0.002,0.375028 -0.0023,0.562541 -7e-4,0.105101 -7.666e-4,0.210204 -0.00103,0.315307 0,0 0.379333,-0.19328 0.379333,-0.19328 v 0 c -2.543e-4,-0.104753 -3.287e-4,-0.209506 -0.00103,-0.314258 -3.067e-4,-0.186733 -0.0033,-0.373461 -0.0023,-0.560202 8.333e-4,-0.219796 -9e-4,-0.439592 6.333e-4,-0.659388 -8.333e-4,-0.191384 -0.00167,-0.38284 0.00433,-0.574156 0,0 -0.382637,0.194963 -0.382637,0.194963 z"
     id="path67"
     style="opacity:1;fill:#4db1f8;fill-opacity:1;stroke:#4db1f8;stroke-width:0.666667;stroke-opacity:1" />
  <path
     style="opacity:1;fill:#4db1f8;fill-opacity:1;stroke:#4db1f8;stroke-width:0.666667;stroke-opacity:1"
     id="path67-6"
     d="m 11.203042,15.508083 c 0.0061,0.189844 0.0051,0.379834 0.0043,0.569747 0.0015,0.219575 -1.98e-4,0.439151 6.33e-4,0.658726 10e-4,0.18752 -0.002,0.375028 -0.0023,0.562541 -7e-4,0.105101 -7.67e-4,0.210204 -0.001,0.315307 0,0 0.379333,-0.19328 0.379333,-0.19328 v 0 c -2.54e-4,-0.104753 -3.29e-4,-0.209506 -0.001,-0.314258 -3.07e-4,-0.186733 -0.0033,-0.373461 -0.0023,-0.560202 8.33e-4,-0.219796 -9e-4,-0.439592 6.33e-4,-0.659388 -8.33e-4,-0.191384 -0.0017,-0.38284 0.0043,-0.574156 0,0 -0.382637,0.194963 -0.382637,0.194963 z" />
  <path
     style="opacity:1;fill:#4db1f8;fill-opacity:1;stroke:#4db1f8;stroke-width:0.666667;stroke-opacity:1"
     id="path67-5"
     d="m 7.1792523,19.062508 c 0.00605,0.189844 0.00514,0.379834 0.00433,0.569747 0.00153,0.219575 -1.973e-4,0.439151 6.334e-4,0.658726 10e-4,0.18752 -0.002,0.375028 -0.0023,0.562541 -7e-4,0.105101 -7.667e-4,0.210204 -0.00103,0.315307 0,0 0.379333,-0.19328 0.379333,-0.19328 v 0 c -2.543e-4,-0.104753 -3.287e-4,-0.209506 -0.00103,-0.314258 -3.067e-4,-0.186733 -0.0033,-0.373461 -0.0023,-0.560202 8.333e-4,-0.219796 -9e-4,-0.439592 6.333e-4,-0.659388 -8.333e-4,-0.191384 -0.00167,-0.38284 0.00433,-0.574156 0,0 -0.382637,0.194963 -0.382637,0.194963 z" />
  <path
     d="m 11.171203,20.099812 c 0.0061,0.189844 0.0051,0.379834 0.0043,0.569747 0.0015,0.219575 -1.97e-4,0.439151 6.33e-4,0.658726 10e-4,0.18752 -0.002,0.375028 -0.0023,0.562541 -7e-4,0.105101 -7.66e-4,0.210204 -0.001,0.315307 0,0 0.379333,-0.19328 0.379333,-0.19328 v 0 c -2.54e-4,-0.104753 -3.28e-4,-0.209506 -0.001,-0.314258 -3.06e-4,-0.186733 -0.0033,-0.373461 -0.0023,-0.560202 8.34e-4,-0.219796 -9e-4,-0.439592 6.34e-4,-0.659388 -8.34e-4,-0.191384 -0.0017,-0.38284 0.0043,-0.574156 0,0 -0.382637,0.194963 -0.382637,0.194963 z"
     id="path67-5-6"
     style="opacity:1;fill:#4db1f8;fill-opacity:1;stroke:#4db1f8;stroke-width:0.666667;stroke-opacity:1" />
  <path
     id="path27"
     d="M 11.766578,13.36424 C 11.163621,13.286227 10.51771,13.09669 10.051188,12.860872 9.8320239,12.750088 9.7494549,12.727481 9.6364378,12.747315 8.3714335,12.969311 7.2287759,12.942358 6.2909193,12.668399 5.6358793,12.477056 5.1942327,12.24316 4.8409489,11.900496 4.6548171,11.71996 4.4590804,11.40124 4.4590804,11.278695 c 0,-0.04498 -0.042854,-0.06105 -0.1628055,-0.06105 -0.267157,0 -0.963546,-0.116512 -1.3307279,-0.222641 C 2.4569296,10.847996 1.8768886,10.549002 1.5888834,10.285378 1.0462853,9.7887128 0.99100104,9.2567105 1.4243026,8.7016116 L 1.5390109,8.5546598 1.25671,8.4118473 C 0.37092151,7.9637385 0.01316138,7.4081278 0.21395112,6.7924152 0.32056842,6.4654782 0.73384391,6.0726298 1.2212818,5.8348739 1.427009,5.7345277 1.6872287,5.6225391 1.7995478,5.5860122 L 2.0037645,5.5195982 1.903115,5.2979889 C 1.7078232,4.8679971 1.8288624,4.4643155 2.2790568,4.0441747 2.8803224,3.4830483 4.1289991,3.0950744 5.3336973,3.0950744 H 5.6771369 L 5.7621835,2.956363 C 6.0184383,2.5384121 6.7529755,2.1041136 7.5429071,1.9035025 8.2237084,1.7306069 8.6642271,1.6876774 9.4879227,1.7139577 c 0.7199123,0.022968 1.0476193,0.069647 1.6151513,0.2300608 l 0.304244,0.085995 0.255904,-0.1032663 c 0.355287,-0.1433709 0.786919,-0.2523632 1.303303,-0.3291001 0.598929,-0.089003 1.769935,-0.057514 2.326965,0.062574 0.795043,0.1714011 1.459716,0.4713079 1.858241,0.8384561 l 0.216157,0.1991392 0.38897,-0.025162 c 0.75937,-0.04912 1.84265,0.1130347 2.521968,0.3775111 0.842138,0.3278664 1.389418,0.8562146 1.413627,1.3647255 0.0046,0.095316 -0.0059,0.2404924 -0.0231,0.3226137 -0.02797,0.1331786 -0.02284,0.1493119 0.0474,0.1493119 0.233394,0 1.084259,0.3303616 1.449139,0.5626508 0.687919,0.4379425 0.940261,1.0745949 0.634427,1.600644 -0.119384,0.2053462 -0.423356,0.4975909 -0.688806,0.6622328 l -0.196677,0.1219865 0.265257,0.2682167 c 0.281199,0.2843366 0.396989,0.5193468 0.396989,0.8057393 0,0.6064427 -0.639229,1.1875733 -1.67875,1.5261713 -0.284207,0.09257 -0.78443,0.204606 -1.046749,0.234436 -0.08727,0.0099 -0.101251,0.03437 -0.120257,0.210311 -0.03638,0.336793 -0.214335,0.612872 -0.570994,0.885849 -0.443378,0.339349 -1.113292,0.601119 -1.926186,0.75266 -0.425238,0.07927 -1.756798,0.09569 -2.139194,0.02637 -0.231259,-0.04192 -0.235971,-0.04088 -0.42005,0.09242 -0.447624,0.324164 -1.188837,0.588453 -1.99298,0.710624 -0.425454,0.06464 -1.475465,0.07401 -1.915337,0.0171 z m 1.71825,-0.356538 c 0.7713,-0.08863 1.428196,-0.300085 1.922111,-0.618716 0.144711,-0.09336 0.269434,-0.163364 0.27716,-0.155575 0.0077,0.0078 0.242654,0.03499 0.52206,0.06045 1.860201,0.169505 3.709725,-0.562857 3.839943,-1.520514 l 0.02435,-0.179041 0.360939,-0.06917 C 21.456795,10.328625 22.23424,9.896497 22.49477,9.3782449 22.694108,8.9817177 22.577998,8.4827737 22.210503,8.1566987 L 22.035556,8.0014703 22.22968,7.8759027 c 0.24668,-0.1595626 0.544299,-0.4791323 0.622962,-0.6689102 0.03346,-0.080721 0.06084,-0.2493203 0.06084,-0.3746644 0,-0.4530586 -0.331453,-0.8507865 -0.975649,-1.1707303 C 21.742308,5.5644888 21.431246,5.4420113 21.246583,5.389425 L 20.910833,5.293814 20.909968,5.0206374 C 20.909234,4.7941203 20.889213,4.7110397 20.792794,4.534227 20.445469,3.8973171 19.469693,3.4608696 18.104403,3.3317567 17.844774,3.307205 17.48997,3.2989109 17.31595,3.3133234 17.007453,3.3388757 16.997094,3.3368332 16.901201,3.2315799 16.74949,3.0650611 16.30712,2.7892778 15.979816,2.6571682 15.310119,2.3868598 14.584863,2.2794437 13.64285,2.3110461 c -0.731211,0.024529 -1.052307,0.07956 -1.644452,0.2818282 L 11.617947,2.7228308 11.185599,2.6133166 C 9.8749372,2.2813242 8.3427184,2.4096614 7.2971116,2.9390125 6.9895566,3.0947159 6.5365613,3.475456 6.492547,3.6152451 6.471323,3.6826451 6.430179,3.6923371 6.164815,3.6924341 5.539531,3.6926654 4.7174934,3.8465852 4.1861581,4.0629206 3.2364277,4.4496083 2.7688923,5.1197896 3.03564,5.7121131 3.11906,5.8973506 3.1226639,5.8907783 2.8988527,5.9615596 2.5931832,6.0582283 2.0420367,6.3726288 1.8531643,6.558071 1.5861701,6.8202152 1.4806175,7.0398945 1.4796037,7.3355353 c -0.00154,0.448531 0.3056641,0.8461199 0.890768,1.1528538 0.1603146,0.084043 0.2981366,0.1583926 0.3062711,0.1652211 0.00813,0.00683 -0.034553,0.071404 -0.094861,0.1435015 -0.3057026,0.365461 -0.30287,0.8407286 0.00745,1.2508463 0.1499697,0.198196 0.5909521,0.502359 0.9417643,0.649573 0.3712825,0.155804 1.0100142,0.3111 1.4407379,0.350289 l 0.3348872,0.03047 0.1048942,0.220718 c 0.2840573,0.597712 1.2129003,1.07757 2.3919556,1.23573 0.4521515,0.06065 1.7121588,0.02417 2.0782205,-0.06017 l 0.2678465,-0.06171 0.206153,0.117136 c 0.365842,0.20787 1.096852,0.409622 1.786154,0.492962 0.262076,0.03168 1.008306,0.02322 1.343,-0.01525 z"
     style="opacity:0.76;fill:#4db1f8;fill-opacity:1;stroke:#4db1f8;stroke-width:0.0793159;stroke-opacity:1" />
  <path
     sodipodi:type="star"
     style="opacity:1;fill:#e6e6e6;fill-opacity:1;stroke:#e6e6e6;stroke-width:0.666667;stroke-opacity:1"
     id="path15"
     sodipodi:sides="11"
     sodipodi:cx="2.0855391"
     sodipodi:cy="2.2082179"
     sodipodi:r1="0.75402814"
     sodipodi:r2="0.37701407"
     sodipodi:arg1="-1.3521274"
     sodipodi:arg2="-1.066528"
     inkscape:flatsided="false"
     inkscape:rounded="0"
     inkscape:randomized="0"
     d="M 2.2491108,1.4721453 2.2676998,1.8781314 2.6210952,1.6774278 2.4172407,2.029015 2.8230443,2.0512323 2.4614686,2.2367942 2.7908408,2.4748786 2.3863416,2.4355007 2.5347089,2.8138621 2.2157119,2.5620464 2.1359688,2.9605577 2.0037532,2.5762541 1.7212177,2.8683908 1.817761,2.4736129 1.422136,2.5666236 1.7167865,2.2867106 1.3336801,2.1510652 1.7328883,2.0748874 1.4839341,1.7536523 1.8609542,1.9053957 1.8251935,1.5005607 2.0603243,1.8320479 Z"
     inkscape:transform-center-x="0.071317425"
     inkscape:transform-center-y="0.04048172"
     transform="matrix(9.9370858,0,0,4.977135,-8.4567643,-3.3632607)" />
  <path
     style="opacity:0.76;fill:#4db1f8;fill-opacity:1;stroke:#4db1f8;stroke-width:0.079316;stroke-opacity:1"
     d="M 11.766578,13.36424 C 11.163621,13.286227 10.51771,13.09669 10.051188,12.860872 9.832024,12.750088 9.749455,12.727481 9.636438,12.747315 8.3714336,12.969311 7.228776,12.942358 6.2909193,12.668399 5.6358793,12.477056 5.1942326,12.24316 4.840949,11.900496 4.654817,11.71996 4.4590803,11.40124 4.4590803,11.278695 c 0,-0.04498 -0.042854,-0.06105 -0.1628053,-0.06105 -0.267157,0 -0.9635461,-0.116512 -1.330728,-0.222641 C 2.4569296,10.847996 1.8768886,10.549002 1.5888834,10.285378 1.0462854,9.7887129 0.9910011,9.2567105 1.4243026,8.7016115 L 1.5390109,8.5546599 1.25671,8.4118472 C 0.3709216,7.9637385 0.0131614,7.4081279 0.2139512,6.7924152 0.3205685,6.4654782 0.733844,6.0726299 1.2212818,5.8348739 1.427009,5.7345275 1.6872287,5.6225389 1.7995478,5.5860122 L 2.0037645,5.5195982 1.903115,5.2979889 C 1.7078232,4.8679969 1.828862,4.4643154 2.2790568,4.0441746 2.8803224,3.4830482 4.128999,3.0950743 5.3336973,3.0950743 H 5.677137 L 5.7621836,2.9563629 C 6.0184383,2.538412 6.7529756,2.1041135 7.542907,1.9035024 8.2237083,1.7306068 8.664227,1.6876773 9.4879226,1.7139576 c 0.7199124,0.022968 1.0476194,0.069647 1.6151514,0.2300608 l 0.304244,0.085995 0.255904,-0.1032663 c 0.355287,-0.1433709 0.786919,-0.2523632 1.303303,-0.3291001 0.598929,-0.089003 1.769935,-0.057514 2.326965,0.062574 0.795044,0.1714011 1.459717,0.4713079 1.858242,0.8384561 l 0.216157,0.1991392 0.38897,-0.025162 c 0.75937,-0.04912 1.84265,0.1130347 2.521968,0.3775111 0.842138,0.3278664 1.389418,0.8562146 1.413627,1.3647255 0.0046,0.095316 -0.0059,0.2404924 -0.0231,0.3226137 -0.02797,0.1331786 -0.02284,0.1493119 0.0474,0.1493119 0.233394,0 1.084259,0.3303617 1.449139,0.5626507 0.687919,0.4379427 0.940261,1.074595 0.634427,1.600644 -0.119384,0.2053463 -0.423356,0.497591 -0.688806,0.662233 l -0.196677,0.1219863 0.265257,0.2682167 c 0.281199,0.2843367 0.396989,0.519347 0.396989,0.8057393 0,0.6064427 -0.639229,1.1875735 -1.67875,1.5261715 -0.284207,0.09257 -0.78443,0.204606 -1.046749,0.234436 -0.08727,0.0099 -0.101251,0.03437 -0.120257,0.210311 -0.03638,0.336793 -0.214335,0.612872 -0.570994,0.885849 -0.443378,0.339349 -1.113292,0.601119 -1.926186,0.75266 -0.425238,0.07927 -1.756798,0.09569 -2.139194,0.02637 -0.23126,-0.04192 -0.235972,-0.04088 -0.420051,0.09242 -0.447624,0.324164 -1.188837,0.588453 -1.99298,0.710624 -0.425454,0.06464 -1.475465,0.07401 -1.915337,0.0171 z m 1.71825,-0.356538 c 0.7713,-0.08863 1.428196,-0.300085 1.922111,-0.618716 0.144711,-0.09336 0.269434,-0.163364 0.27716,-0.155575 0.0077,0.0078 0.242655,0.03499 0.522061,0.06045 1.860201,0.169505 3.709725,-0.562857 3.839943,-1.520514 l 0.02435,-0.179041 0.360939,-0.06917 c 1.025404,-0.196511 1.802849,-0.6286391 2.063379,-1.1468911 0.199338,-0.3965274 0.08323,-0.8954714 -0.284267,-1.2215464 L 22.035557,8.0014702 22.229681,7.8759025 c 0.24668,-0.1595626 0.544299,-0.4791323 0.622962,-0.66891 0.03346,-0.080721 0.06084,-0.2493203 0.06084,-0.3746646 0,-0.4530584 -0.331453,-0.8507864 -0.975649,-1.17073 -0.195525,-0.097109 -0.506587,-0.2195867 -0.69125,-0.272173 l -0.33575,-0.095611 -8.67e-4,-0.2731767 C 20.909235,4.7941202 20.889217,4.7110396 20.792795,4.5342269 20.44547,3.897317 19.469694,3.4608695 18.104404,3.3317566 17.844775,3.3072046 17.489971,3.2989106 17.315951,3.3133236 17.007454,3.3388756 16.997095,3.3368336 16.901202,3.2315806 16.749491,3.0650618 16.307121,2.7892785 15.979817,2.6571689 15.310119,2.3868605 14.584863,2.2794444 13.64285,2.3110468 12.911639,2.3355758 12.590543,2.3906068 11.998398,2.592875 L 11.617947,2.7228315 11.185599,2.6133173 C 9.8749373,2.2813249 8.3427183,2.4096621 7.2971116,2.9390132 6.9895566,3.0947166 6.5365613,3.4754567 6.492547,3.6152458 6.471324,3.6826458 6.430179,3.6923378 6.164815,3.6924348 5.539531,3.6926661 4.7174933,3.8465859 4.186158,4.0629213 3.2364277,4.449609 2.7688923,5.1197903 3.03564,5.7121137 3.11906,5.8973513 3.122664,5.890779 2.8988527,5.9615603 2.5931832,6.0582293 2.0420367,6.3726297 1.8531643,6.5580717 1.5861701,6.820216 1.4806175,7.0398953 1.4796037,7.335536 c -0.00154,0.448531 0.3056641,0.84612 0.890768,1.1528537 0.1603146,0.084043 0.2981366,0.1583926 0.3062711,0.1652213 0.00813,0.00683 -0.034553,0.071404 -0.094861,0.1435013 -0.3057026,0.365461 -0.30287,0.8407287 0.00745,1.2508467 0.1499697,0.198196 0.5909521,0.502359 0.9417642,0.649573 0.3712826,0.155804 1.0100143,0.3111 1.440738,0.350289 l 0.3348873,0.03047 0.104894,0.220718 c 0.2840573,0.597712 1.2129003,1.07757 2.3919557,1.23573 0.4521516,0.06065 1.712159,0.02417 2.0782206,-0.06017 l 0.2678464,-0.06171 0.206153,0.117136 c 0.365842,0.20787 1.096852,0.409622 1.786154,0.492962 0.262076,0.03168 1.008306,0.02322 1.343,-0.01525 z"
     id="path27-1" />
</svg>
