<?xml version="1.0" encoding="UTF-8" standalone="no"?>
<svg
   xmlns:dc="http://purl.org/dc/elements/1.1/"
   xmlns:cc="http://creativecommons.org/ns#"
   xmlns:rdf="http://www.w3.org/1999/02/22-rdf-syntax-ns#"
   xmlns:svg="http://www.w3.org/2000/svg"
   xmlns="http://www.w3.org/2000/svg"
   xmlns:sodipodi="http://sodipodi.sourceforge.net/DTD/sodipodi-0.dtd"
   xmlns:inkscape="http://www.inkscape.org/namespaces/inkscape"
   width="72"
   height="72"
   viewBox="0 0 24 24"
   fill="none"
   stroke="#eaff31"
   stroke-width="2"
   stroke-linecap="round"
   stroke-linejoin="round"
   class="feather feather-cloud-lightning"
   version="1.1"
   id="svg6"
   sodipodi:docname="mylightning.svg"
   inkscape:version="1.0 (4035a4fb49, 2020-05-01)">
  <metadata
     id="metadata12">
    <rdf:RDF>
      <cc:Work
         rdf:about="">
        <dc:format>image/svg+xml</dc:format>
        <dc:type
           rdf:resource="http://purl.org/dc/dcmitype/StillImage" />
        <dc:title></dc:title>
      </cc:Work>
    </rdf:RDF>
  </metadata>
  <defs
     id="defs10" />
  <sodipodi:namedview
     inkscape:document-rotation="0"
     pagecolor="#ffffff"
     bordercolor="#666666"
     borderopacity="1"
     objecttolerance="10"
     gridtolerance="10"
     guidetolerance="10"
     inkscape:pageopacity="0"
     inkscape:pageshadow="2"
     inkscape:window-width="1920"
     inkscape:window-height="1001"
     id="namedview8"
     showgrid="false"
     inkscape:zoom="5.763889"
     inkscape:cx="36"
     inkscape:cy="42.766265"
     inkscape:window-x="-9"
     inkscape:window-y="-9"
     inkscape:window-maximized="1"
     inkscape:current-layer="svg6" />
  <path
     transform="matrix(10.020608,0,0,6.4395743,-8.6617241,-6.0438733)"
     inkscape:transform-center-y="0.052376607"
     inkscape:transform-center-x="0.07191749"
     d="M 2.2491108,1.4721453 2.2676998,1.8781314 2.6210952,1.6774278 2.4172407,2.029015 2.8230443,2.0512323 2.4614686,2.2367942 2.7908408,2.4748786 2.3863416,2.4355007 2.5347089,2.8138621 2.2157119,2.5620464 2.1359688,2.9605577 2.0037532,2.5762541 1.7212177,2.8683908 1.817761,2.4736129 1.422136,2.5666236 1.7167865,2.2867106 1.3336801,2.1510652 1.7328883,2.0748874 1.4839341,1.7536523 1.8609542,1.9053957 1.8251935,1.5005607 2.0603243,1.8320479 Z"
     inkscape:randomized="0"
     inkscape:rounded="0"
     inkscape:flatsided="false"
     sodipodi:arg2="-1.066528"
     sodipodi:arg1="-1.3521274"
     sodipodi:r2="0.37701407"
     sodipodi:r1="0.75402814"
     sodipodi:cy="2.2082179"
     sodipodi:cx="2.0855391"
     sodipodi:sides="11"
     id="path15"
     style="opacity:1;fill:#808080;fill-opacity:1;stroke:#808080;stroke-width:0.666667;stroke-opacity:1"
     sodipodi:type="star" />
  <path
     id="path27-1"
     d="M 11.780224,15.508348 C 11.177267,15.408257 10.531356,15.165068 10.064834,14.862503 9.8456696,14.720362 9.7631006,14.691356 9.6500836,14.716804 8.3850796,15.001635 7.2424216,14.967053 6.3045646,14.615546 5.649525,14.370043 5.207879,14.069944 4.854595,13.63029 4.668463,13.398653 4.472726,12.989721 4.472726,12.832489 c 0,-0.05771 -0.04285,-0.07833 -0.162805,-0.07833 -0.267157,0 -0.963546,-0.14949 -1.330728,-0.285658 C 2.470576,12.279887 1.8905347,11.896264 1.6025293,11.558022 1.0599313,10.920777 1.004647,10.238193 1.4379487,9.5259751 L 1.552657,9.3374287 1.270356,9.1541942 C 0.38456769,8.5792491 0.02680729,7.8663738 0.22759729,7.0763848 0.33421429,6.6569098 0.74748999,6.1528667 1.2349277,5.8478145 1.440655,5.7190654 1.7008747,5.5753786 1.8131937,5.5285133 L 2.0174103,5.443301 1.916761,5.1589656 C 1.7214693,4.6072655 1.842508,4.0893233 2.292703,3.5502625 2.893968,2.8303109 4.142645,2.3325219 5.347343,2.3325219 h 0.34344 L 5.775833,2.1545486 C 6.032084,1.6182977 6.7666216,1.0610724 7.5565526,0.80367896 8.2373536,0.58184559 8.6778726,0.52676488 9.5015686,0.56048375 10.221481,0.5899515 10.549188,0.64984415 11.11672,0.85566291 l 0.304244,0.11033565 0.255904,-0.13249555 c 0.355287,-0.18395178 0.786919,-0.32379419 1.303303,-0.4222514 0.598929,-0.11419506 1.769935,-0.0737932 2.326965,0.0802854 0.795044,0.21991611 1.459717,0.60471049 1.858242,1.07577929 l 0.216157,0.2555048 0.38897,-0.032285 c 0.75937,-0.063023 1.84265,0.1450289 2.521968,0.484365 0.842138,0.420668 1.389418,1.0985635 1.413627,1.7510072 0.0046,0.122295 -0.0059,0.308563 -0.0231,0.4139287 -0.02797,0.1708744 -0.02284,0.1915743 0.0474,0.1915743 0.233394,0 1.084259,0.4238696 1.449139,0.7219074 0.687919,0.5619012 0.940261,1.3787556 0.634427,2.0537014 C 23.694582,7.6704896 23.39061,8.0454525 23.12516,8.256696 l -0.196677,0.1565151 0.265257,0.344134 c 0.281199,0.3648178 0.396989,0.6663468 0.396989,1.0338025 0,0.7780934 -0.639229,1.5237124 -1.67875,1.9581494 -0.284207,0.118772 -0.78443,0.262519 -1.046749,0.300793 -0.08727,0.0127 -0.101251,0.0441 -0.120257,0.269839 -0.03638,0.432121 -0.214335,0.786344 -0.570994,1.136586 -0.443378,0.435401 -1.113292,0.771264 -1.926186,0.965698 -0.425238,0.101708 -1.756798,0.122775 -2.139194,0.03383 -0.23126,-0.05378 -0.235972,-0.05245 -0.420051,0.11858 -0.447624,0.415917 -1.188837,0.755013 -1.99298,0.911764 -0.425454,0.08294 -1.475465,0.09496 -1.915337,0.02194 z m 1.71825,-0.457456 c 0.7713,-0.113716 1.428196,-0.385023 1.922111,-0.793841 0.144711,-0.119786 0.269434,-0.209604 0.27716,-0.199611 0.0077,0.01001 0.242655,0.04489 0.522061,0.07756 1.860201,0.217483 3.709725,-0.722173 3.839943,-1.950892 l 0.02435,-0.229718 0.360939,-0.08875 c 1.025404,-0.252133 1.802849,-0.806574 2.063379,-1.471516 0.199338,-0.5087626 0.08323,-1.1489314 -0.284267,-1.5673011 L 22.049203,8.627661 22.243327,8.4665514 c 0.24668,-0.2047271 0.544299,-0.6147505 0.622962,-0.8582434 0.03346,-0.1035676 0.06084,-0.3198906 0.06084,-0.4807129 0,-0.5812951 -0.331453,-1.091599 -0.975649,-1.5021019 -0.195525,-0.1245955 -0.506587,-0.28174 -0.69125,-0.3492109 L 20.92448,5.1536089 20.923613,4.8031104 C 20.92288,4.5124783 20.902863,4.4058819 20.806441,4.1790228 20.459116,3.3618371 19.48334,2.8018546 18.11805,2.6361965 17.858421,2.6046934 17.503617,2.5940526 17.329597,2.6125457 17.0211,2.6453318 17.010741,2.6427101 16.914848,2.5076655 16.763137,2.2940142 16.320767,1.9401711 15.993463,1.7706681 15.323765,1.4238498 14.598509,1.28603 13.656496,1.3265772 12.925285,1.3580504 12.604189,1.4286565 12.012044,1.6881759 L 11.631593,1.8549165 11.199245,1.7144043 C 9.8885836,1.2884425 8.3563646,1.4531053 7.3107576,2.1322877 7.0032026,2.3320625 6.5502076,2.82057 6.5061926,2.9999263 6.4849726,3.0864037 6.4438226,3.098839 6.178461,3.0989634 5.553177,3.0992602 4.73114,3.2967465 4.199804,3.5743149 3.250074,4.0704535 2.782539,4.9303279 3.049286,5.6903068 3.132706,5.9279755 3.136306,5.9195429 2.912499,6.0103586 2.60683,6.1343895 2.055683,6.5377801 1.8668107,6.7757104 1.5998163,7.1120548 1.4942637,7.3939134 1.49325,7.7732348 1.49172,8.3487213 1.798914,8.8588469 2.384018,9.2524012 c 0.160315,0.1078273 0.298137,0.2032244 0.306271,0.2119863 0.0081,0.00872 -0.03455,0.09161 -0.09486,0.1841186 -0.305702,0.4689039 -0.30287,1.0786949 0.0075,1.6048959 0.14997,0.254295 0.590952,0.64455 0.941764,0.833433 0.371283,0.199904 1.010015,0.399156 1.440738,0.449437 l 0.334888,0.03909 0.104894,0.283191 c 0.284057,0.766893 1.2128996,1.382574 2.3919546,1.585501 0.452152,0.07782 1.712159,0.03101 2.078221,-0.0772 l 0.2678464,-0.07918 0.206153,0.150291 c 0.365842,0.266707 1.096852,0.525564 1.786154,0.632493 0.262076,0.04065 1.008306,0.02979 1.343,-0.01957 z"
     style="opacity:1;fill:#4d4d4d;fill-opacity:1;stroke:#4d4d4d;stroke-width:0.0898426;stroke-opacity:1" />
  <path
     d="m 10.502382,14.171976 c -0.180391,0.270648 -0.360487,0.54134 -0.5552221,0.801949 -0.2109093,0.273663 -0.4137877,0.553125 -0.6164067,0.832918 -0.1143773,0.172924 -0.250005,0.332818 -0.3544916,0.512374 -0.016663,0.02863 -0.103188,0.203361 -0.11894,0.234959 -0.091043,0.200906 -0.1534274,0.412155 -0.196221,0.62804 -0.00419,0.0255 -0.02004,0.111435 -0.017953,0.139072 0.00637,0.08431 0.048743,0.174564 0.097619,0.242197 0.01844,0.02552 0.041158,0.04765 0.061736,0.07147 0.1723437,0.166795 0.4020084,0.202842 0.6304827,0.228779 0.2190283,0.01906 0.4400393,0.02786 0.6593077,0.0067 0.05518,-0.0053 0.110025,-0.01366 0.165038,-0.0205 0.289121,-0.04263 0.578018,-0.08687 0.866887,-0.131215 0.280417,-0.04058 0.561463,-0.07676 0.842916,-0.109362 0.301351,-0.03084 0.604073,-0.04437 0.906887,-0.04626 0.260434,0.0025 0.520478,0.01755 0.780635,0.02837 0.04389,0.01014 0.182719,-0.0125 0.213678,0.02963 0.02405,0.03272 0.03473,0.09645 0.04337,0.131181 0.0188,0.120036 0.02584,0.245304 0.0087,0.366205 -0.01087,0.0765 -0.02143,0.09834 -0.04513,0.171472 -0.14242,0.333192 -0.357236,0.628835 -0.563159,0.92479 -0.592745,0.836051 -1.26238,1.612528 -1.902005,2.412056 -0.119269,0.149084 -0.236194,0.300028 -0.354291,0.450042 -0.241104,0.29816 -0.459996,0.612395 -0.671106,0.932034 0,0 1.060431,-0.467669 1.060431,-0.467669 v 0 c 0.177012,-0.301321 0.36163,-0.597967 0.572266,-0.877479 0.108488,-0.145179 0.215115,-0.291768 0.325463,-0.435538 0.646696,-0.842562 1.345169,-1.643322 2.015669,-2.466615 0.142667,-0.190825 0.229208,-0.301854 0.359955,-0.492825 0.09032,-0.131922 0.180839,-0.269297 0.240826,-0.418492 0.01197,-0.02978 0.02017,-0.06094 0.03025,-0.09141 0.0072,-0.03214 0.0161,-0.06395 0.02165,-0.09643 0.02806,-0.164173 0.01668,-0.334876 -0.01327,-0.497663 -0.02368,-0.09369 -0.04349,-0.202207 -0.125662,-0.265923 -0.05965,-0.04625 -0.149825,-0.02647 -0.217635,-0.03049 -0.268922,-9.67e-4 -0.537816,-0.0046 -0.80665,-0.01175 -0.30316,-0.0064 -0.606859,-0.0028 -0.908598,0.03051 -0.280288,0.02728 -0.559255,0.06552 -0.838852,0.09892 -0.292295,0.04645 -0.58369,0.09812 -0.876452,0.141697 -0.12592,0.01814 -0.175195,0.02813 -0.300028,0.03533 -0.165027,0.0095 -0.330758,-0.002 -0.495662,-0.0077 C 10.23153,17.13903 10.020955,17.12617 9.862756,16.994178 9.7433516,16.863113 9.748182,16.809369 9.775789,16.640566 c 0.037638,-0.204162 0.1009223,-0.403164 0.194197,-0.589069 0.132588,-0.257119 0.295524,-0.494505 0.469897,-0.725154 0.19878,-0.27728 0.398111,-0.554152 0.604215,-0.826072 0.20213,-0.276536 0.389622,-0.563852 0.605464,-0.830242 0,0 -1.147123,0.501905 -1.147123,0.501905 z"
     id="path18"
     style="opacity:1;fill:#eaff31;fill-opacity:1;stroke:#eaff31;stroke-width:0.666667;stroke-opacity:1" />
</svg>
