<?xml version="1.0" encoding="UTF-8" standalone="no"?>
<svg
   xmlns:dc="http://purl.org/dc/elements/1.1/"
   xmlns:cc="http://creativecommons.org/ns#"
   xmlns:rdf="http://www.w3.org/1999/02/22-rdf-syntax-ns#"
   xmlns:svg="http://www.w3.org/2000/svg"
   xmlns="http://www.w3.org/2000/svg"
   xmlns:sodipodi="http://sodipodi.sourceforge.net/DTD/sodipodi-0.dtd"
   xmlns:inkscape="http://www.inkscape.org/namespaces/inkscape"
   width="72"
   height="72"
   viewBox="0 0 24 24"
   fill="none"
   stroke="#0c36ce"
   stroke-width="2"
   stroke-linecap="round"
   stroke-linejoin="round"
   class="feather feather-cloud-rain"
   version="1.1"
   id="svg10"
   sodipodi:docname="myrain.svg"
   inkscape:version="1.0 (4035a4fb49, 2020-05-01)">
  <metadata
     id="metadata16">
    <rdf:RDF>
      <cc:Work
         rdf:about="">
        <dc:format>image/svg+xml</dc:format>
        <dc:type
           rdf:resource="http://purl.org/dc/dcmitype/StillImage" />
      </cc:Work>
    </rdf:RDF>
  </metadata>
  <defs
     id="defs14" />
  <sodipodi:namedview
     inkscape:document-rotation="0"
     pagecolor="#ffffff"
     bordercolor="#666666"
     borderopacity="1"
     objecttolerance="10"
     gridtolerance="10"
     guidetolerance="10"
     inkscape:pageopacity="0"
     inkscape:pageshadow="2"
     inkscape:window-width="1920"
     inkscape:window-height="1001"
     id="namedview12"
     showgrid="false"
     inkscape:zoom="11.527778"
     inkscape:cx="36"
     inkscape:cy="36"
     inkscape:window-x="-9"
     inkscape:window-y="-9"
     inkscape:window-maximized="1"
     inkscape:current-layer="svg10" />
  <path
     style="opacity:1;fill:#0c36ce;fill-opacity:1;stroke:#0c36ce;stroke-width:1.07209;stroke-opacity:1"
     id="path67"
     d="m 7.9983667,15.552872 c 0.00605,0.490953 0.00514,0.982284 0.00433,1.473415 0.00153,0.56784 -1.973e-4,1.135683 6.333e-4,1.703523 10e-4,0.484942 -0.002,0.969854 -0.0023,1.454779 C 8.00033,20.456389 8.0002633,20.728195 8,21 8,21 8.379333,20.500162 8.379333,20.500162 v 0 c -2.543e-4,-0.270901 -3.287e-4,-0.541801 -0.00103,-0.812699 -3.067e-4,-0.482907 -0.0033,-0.965802 -0.0023,-1.448731 8.333e-4,-0.568411 -9e-4,-1.136822 6.333e-4,-1.705234 -8.333e-4,-0.494936 -0.00167,-0.990057 0.00433,-1.484817 0,0 -0.382637,0.504191 -0.382637,0.504191 z" />
  <path
     d="m 11.95327,15.985478 c 0.0061,0.640261 0.0051,1.281014 0.0043,1.921506 0.0015,0.74053 -1.97e-4,1.481064 6.34e-4,2.221594 10e-4,0.632421 -0.002,1.264803 -0.0023,1.897202 -7e-4,0.35446 -7.67e-4,0.708926 -10e-4,1.063392 0,0 0.379333,-0.651847 0.379333,-0.651847 v 0 c -2.55e-4,-0.353287 -3.29e-4,-0.706572 -10e-4,-1.059855 -3.07e-4,-0.629768 -0.0033,-1.259519 -0.0023,-1.889315 8.33e-4,-0.741275 -9e-4,-1.48255 6.33e-4,-2.223825 -8.33e-4,-0.645455 -0.0017,-1.291151 0.0043,-1.936376 0,0 -0.382637,0.657524 -0.382637,0.657524 z"
     id="path67-0"
     style="opacity:1;fill:#0c36ce;fill-opacity:1;stroke:#0c36ce;stroke-width:1.2243;stroke-opacity:1" />
  <path
     d="m 15.914716,15.427325 c 0.0061,0.490953 0.0051,0.982284 0.0043,1.473415 0.0015,0.56784 -1.97e-4,1.135683 6.34e-4,1.703523 0.001,0.484942 -0.002,0.969854 -0.0023,1.454779 -7e-4,0.2718 -7.67e-4,0.543606 -0.001,0.815411 0,0 0.379333,-0.499838 0.379333,-0.499838 v 0 c -2.55e-4,-0.270901 -3.29e-4,-0.541801 -0.001,-0.812699 -3.07e-4,-0.482907 -0.0033,-0.965802 -0.0023,-1.448731 8.33e-4,-0.568411 -9e-4,-1.136822 6.33e-4,-1.705234 -8.33e-4,-0.494936 -0.0017,-0.990057 0.0043,-1.484817 0,0 -0.382637,0.504191 -0.382637,0.504191 z"
     id="path67-1"
     style="opacity:1;fill:#0c36ce;fill-opacity:1;stroke:#0c36ce;stroke-width:1.07209;stroke-opacity:1" />
  <path
     sodipodi:type="star"
     style="opacity:1;fill:#b3b3b3;fill-opacity:1;stroke:#b3b3b3;stroke-width:0.666667;stroke-opacity:1"
     id="path15"
     sodipodi:sides="11"
     sodipodi:cx="2.0855391"
     sodipodi:cy="2.2082179"
     sodipodi:r1="0.75402814"
     sodipodi:r2="0.37701407"
     sodipodi:arg1="-1.3521274"
     sodipodi:arg2="-1.066528"
     inkscape:flatsided="false"
     inkscape:rounded="0"
     inkscape:randomized="0"
     d="M 2.2491108,1.4721453 2.2676998,1.8781314 2.6210952,1.6774278 2.4172407,2.029015 2.8230443,2.0512323 2.4614686,2.2367942 2.7908408,2.4748786 2.3863416,2.4355007 2.5347089,2.8138621 2.2157119,2.5620464 2.1359688,2.9605577 2.0037532,2.5762541 1.7212177,2.8683908 1.817761,2.4736129 1.422136,2.5666236 1.7167865,2.2867106 1.3336801,2.1510652 1.7328883,2.0748874 1.4839341,1.7536523 1.8609542,1.9053957 1.8251935,1.5005607 2.0603243,1.8320479 Z"
     inkscape:transform-center-x="0.07191749"
     inkscape:transform-center-y="0.052376607"
     transform="matrix(10.020608,0,0,6.4395743,-8.6616835,-4.9733053)" />
  <path
     style="opacity:1;fill:#0c36ce;fill-opacity:1;stroke:#0c36ce;stroke-width:0.0898427;stroke-opacity:1"
     d="m 11.780264,16.578915 c -0.602957,-0.100091 -1.248868,-0.34328 -1.71539,-0.645845 -0.2191639,-0.142141 -0.3017329,-0.171147 -0.4147499,-0.145699 -1.265004,0.284831 -2.407662,0.250249 -3.345519,-0.101258 -0.65504,-0.245503 -1.096686,-0.545602 -1.44997,-0.985256 -0.186132,-0.231637 -0.381869,-0.640569 -0.381869,-0.797801 0,-0.05771 -0.04285,-0.07833 -0.162805,-0.07833 -0.267157,0 -0.963546,-0.14949 -1.330728,-0.285658 C 2.4706161,13.350454 1.8905751,12.966831 1.6025698,12.628589 1.0599718,11.991344 1.0046874,11.308761 1.4379891,10.596543 L 1.5526974,10.407997 1.2703964,10.224762 C 0.38460815,9.6498168 0.02684785,8.9369418 0.22763785,8.1469528 c 0.106617,-0.419475 0.5198926,-0.923518 1.00733025,-1.22857 0.2057273,-0.128749 0.465947,-0.272436 0.578266,-0.319301 L 2.0174511,6.5138688 1.9168014,6.2295338 C 1.7215098,5.6778335 1.8425484,5.1598915 2.2927431,4.6208305 2.8940081,3.9008788 4.1426851,3.4030898 5.3473831,3.4030898 h 0.34344 l 0.08505,-0.177973 c 0.256251,-0.536251 0.990789,-1.0934763 1.78072,-1.3508697 0.680801,-0.2218333 1.12132,-0.2769143 1.945016,-0.2431953 0.7199119,0.029467 1.0476189,0.08936 1.6151509,0.295179 l 0.304244,0.1103357 0.255904,-0.1324954 c 0.355287,-0.183952 0.786919,-0.3237943 1.303303,-0.4222513 0.598929,-0.1141953 1.769935,-0.073793 2.326966,0.080285 0.795044,0.219916 1.459717,0.6047104 1.858242,1.0757794 l 0.216157,0.2555046 0.38897,-0.032283 c 0.75937,-0.063023 1.84265,0.145029 2.521968,0.484365 0.842138,0.420668 1.389418,1.0985637 1.413627,1.7510073 0.0046,0.122295 -0.0059,0.308563 -0.0231,0.4139287 -0.02797,0.1708743 -0.02284,0.1915743 0.0474,0.1915743 0.233394,0 1.084259,0.4238694 1.449139,0.7219074 0.687919,0.5619013 0.940261,1.3787553 0.634427,2.0537013 -0.119384,0.26347 -0.423356,0.638432 -0.688806,0.849676 l -0.196677,0.156515 0.265257,0.344134 c 0.281199,0.3648182 0.396989,0.6663472 0.396989,1.0338032 0,0.778092 -0.639229,1.523711 -1.67875,1.958148 -0.284207,0.118772 -0.78443,0.262519 -1.046749,0.300793 -0.08727,0.0127 -0.101251,0.0441 -0.120257,0.269839 -0.03638,0.432121 -0.214335,0.786344 -0.570994,1.136586 -0.443378,0.435401 -1.113292,0.771264 -1.926186,0.965698 -0.425238,0.101708 -1.756798,0.122775 -2.139194,0.03383 -0.23126,-0.05378 -0.235972,-0.05245 -0.420051,0.11858 -0.447624,0.415917 -1.188838,0.755013 -1.992981,0.911764 -0.425454,0.08294 -1.475465,0.09496 -1.915337,0.02194 z m 1.71825,-0.457456 c 0.7713,-0.113716 1.428196,-0.385023 1.922112,-0.793841 0.144711,-0.119786 0.269434,-0.209604 0.27716,-0.199611 0.0077,0.01001 0.242655,0.04489 0.522061,0.07756 1.860201,0.217483 3.709725,-0.722173 3.839943,-1.950892 l 0.02435,-0.229718 0.360939,-0.08875 c 1.025404,-0.252133 1.802849,-0.806574 2.063379,-1.471516 0.199338,-0.508761 0.08323,-1.14893 -0.284267,-1.5673002 l -0.174947,-0.199162 0.194124,-0.161109 c 0.24668,-0.204727 0.544299,-0.614751 0.622962,-0.858244 0.03346,-0.103567 0.06084,-0.31989 0.06084,-0.480713 0,-0.581295 -0.331453,-1.091599 -0.975649,-1.502102 -0.195525,-0.124595 -0.506587,-0.2817397 -0.69125,-0.3492103 L 20.924521,6.2241768 20.923655,5.8736785 C 20.922921,5.5830465 20.902905,5.4764498 20.806483,5.2495908 20.459158,4.4324051 19.483382,3.8724228 18.118092,3.7067645 17.858463,3.6752611 17.503659,3.6646208 17.329639,3.6831145 17.021142,3.7159011 17.010783,3.7132778 16.91489,3.5782341 16.763179,3.3645828 16.320809,3.0107398 15.993505,2.8412368 15.323807,2.4944185 14.59855,2.3565988 13.656537,2.3971458 12.925326,2.4286191 12.60423,2.4992251 12.012085,2.7587445 L 11.631634,2.9254851 11.199286,2.7849731 C 9.8886241,2.3590111 8.3564051,2.5236741 7.3107981,3.2028565 c -0.307555,0.1997746 -0.76055,0.6882823 -0.804565,0.8676386 -0.02122,0.086477 -0.06237,0.098913 -0.327731,0.099037 -0.625284,2.967e-4 -1.447321,0.197783 -1.978657,0.4753514 -0.94973,0.4961386 -1.417265,1.356013 -1.150518,2.1159923 0.08342,0.237668 0.08702,0.229236 -0.136787,0.320052 -0.305669,0.12403 -0.856816,0.527421 -1.0456887,0.765351 -0.2669943,0.336345 -0.372547,0.618203 -0.3735606,0.997525 -0.00153,0.575486 0.305664,1.085612 0.8907683,1.4791662 0.160315,0.107827 0.298137,0.203225 0.306271,0.211986 0.0081,0.0087 -0.03455,0.09161 -0.09486,0.184119 -0.305702,0.468904 -0.30287,1.078694 0.0075,1.604895 0.14997,0.254295 0.590952,0.64455 0.941764,0.833433 0.371283,0.199904 1.010015,0.399156 1.440738,0.449437 l 0.334888,0.03909 0.104894,0.283191 c 0.284057,0.766893 1.212899,1.382574 2.391954,1.585501 0.452152,0.07782 1.712159,0.03101 2.078221,-0.0772 l 0.2678469,-0.07918 0.206153,0.150291 c 0.365842,0.266707 1.096852,0.525564 1.786154,0.632493 0.262076,0.04065 1.008306,0.02979 1.343,-0.01957 z"
     id="path27-1" />
  <path
     style="opacity:1;fill:#0c36ce;fill-opacity:1;stroke:#0c36ce;stroke-width:0.788961;stroke-opacity:1"
     id="path67-1-1"
     d="m 4.6086929,16.641971 c 0.0061,0.265884 0.0051,0.531973 0.0043,0.797954 0.0015,0.307523 -1.97e-4,0.615048 6.33e-4,0.922572 0.001,0.262629 -0.002,0.525241 -0.0023,0.787861 -7e-4,0.147197 -7.67e-4,0.294399 -10e-4,0.441599 0,0 0.379333,-0.270696 0.379333,-0.270696 v 0 c -2.55e-4,-0.146711 -3.29e-4,-0.293421 -0.001,-0.440131 -3.07e-4,-0.261526 -0.0033,-0.523046 -0.0023,-0.784585 8.33e-4,-0.307833 -9e-4,-0.615665 6.33e-4,-0.923499 -8.33e-4,-0.268041 -0.0017,-0.536182 0.0043,-0.804128 0,0 -0.382637,0.273053 -0.382637,0.273053 z" />
  <path
     d="m 19.268919,16.473581 c 0.0061,0.265884 0.0051,0.531973 0.0043,0.797954 0.0015,0.307523 -1.97e-4,0.615048 6.33e-4,0.922572 10e-4,0.262629 -0.002,0.525241 -0.0023,0.787861 -7e-4,0.147197 -7.66e-4,0.294399 -0.001,0.441599 0,0 0.379333,-0.270696 0.379333,-0.270696 v 0 c -2.55e-4,-0.146711 -3.29e-4,-0.293421 -0.001,-0.440131 -3.07e-4,-0.261526 -0.0033,-0.523046 -0.0023,-0.784585 8.34e-4,-0.307833 -9e-4,-0.615665 6.34e-4,-0.923499 -8.34e-4,-0.268041 -0.0017,-0.536182 0.0043,-0.804128 0,0 -0.382637,0.273053 -0.382637,0.273053 z"
     id="path67-1-1-4"
     style="opacity:1;fill:#0c36ce;fill-opacity:1;stroke:#0c36ce;stroke-width:0.78896;stroke-opacity:1" />
</svg>
