<?xml version="1.0" encoding="UTF-8" standalone="no"?>
<svg
   xmlns:dc="http://purl.org/dc/elements/1.1/"
   xmlns:cc="http://creativecommons.org/ns#"
   xmlns:rdf="http://www.w3.org/1999/02/22-rdf-syntax-ns#"
   xmlns:svg="http://www.w3.org/2000/svg"
   xmlns="http://www.w3.org/2000/svg"
   xmlns:sodipodi="http://sodipodi.sourceforge.net/DTD/sodipodi-0.dtd"
   xmlns:inkscape="http://www.inkscape.org/namespaces/inkscape"
   width="72"
   height="72"
   viewBox="0 0 24 24"
   fill="none"
   stroke="#b6dde6"
   stroke-width="2"
   stroke-linecap="round"
   stroke-linejoin="round"
   class="feather feather-cloud-snow"
   version="1.1"
   id="svg16"
   sodipodi:docname="mysnow.svg"
   inkscape:version="1.0 (4035a4fb49, 2020-05-01)">
  <metadata
     id="metadata22">
    <rdf:RDF>
      <cc:Work
         rdf:about="">
        <dc:format>image/svg+xml</dc:format>
        <dc:type
           rdf:resource="http://purl.org/dc/dcmitype/StillImage" />
        <dc:title></dc:title>
      </cc:Work>
    </rdf:RDF>
  </metadata>
  <defs
     id="defs20" />
  <sodipodi:namedview
     inkscape:document-rotation="0"
     pagecolor="#ffffff"
     bordercolor="#666666"
     borderopacity="1"
     objecttolerance="10"
     gridtolerance="10"
     guidetolerance="10"
     inkscape:pageopacity="0"
     inkscape:pageshadow="2"
     inkscape:window-width="1920"
     inkscape:window-height="1001"
     id="namedview18"
     showgrid="false"
     inkscape:zoom="8.15137"
     inkscape:cx="50.132317"
     inkscape:cy="59.708003"
     inkscape:window-x="-9"
     inkscape:window-y="-9"
     inkscape:window-maximized="1"
     inkscape:current-layer="svg16" />
  <circle
     r="0.80500001"
     cy="19.309048"
     cx="5.1600957"
     id="path38"
     style="opacity:1;fill:#b6dde6;fill-opacity:1;stroke:none;stroke-width:0.739364;stroke-opacity:1" />
  <path
     transform="matrix(1.0000301,0,0,0.99813332,-0.04703809,0.03580649)"
     inkscape:transform-center-y="-0.0079508815"
     inkscape:transform-center-x="0.0048457531"
     d="M 5.3421513,19.443095 C 6.6880688,18.04945 3.9014691,20.876903 5.5417978,19.845854 7.1821264,18.814805 3.4260254,20.099848 5.2654353,19.491316 7.1048452,18.882783 3.3234507,20.091371 5.255042,19.940721 7.1866333,19.790071 3.2635817,19.182373 5.1750974,19.498361 7.0866131,19.814349 3.1766955,19.127199 4.9570452,19.89146 6.7373949,20.655722 3.5461166,18.294499 5.0918328,19.462618 6.6375491,20.630737 3.4948236,18.205266 4.716075,19.709356 5.9373264,21.213445 4.2089047,17.639625 5.0347166,19.392273 5.8605284,21.144922 4.2049555,17.536777 4.5873346,19.436126 4.9697137,21.335475 5.1001093,17.367777 5.0168332,19.303443 4.9335571,21.23911 5.1444086,17.274874 4.600317,19.134364 4.0562254,20.993854 6.0155661,17.54123 5.0422796,19.216478 4.0689932,20.891725 6.0979655,17.479555 4.752048,18.8732 c -1.3459175,1.393645 1.9935071,-0.75295 0.3531784,0.278099 -1.6403287,1.031049 1.7419514,-1.047367 -0.097459,-0.438835 -1.8394099,0.608533 2.1150765,0.259725 0.1834852,0.410374 -1.9315913,0.15065 2.0291569,-0.117871 0.1176412,-0.433859 -1.9115156,-0.315988 1.7521075,1.212899 -0.028242,0.448638 -1.7803496,-0.764262 1.8515071,0.838626 0.3057908,-0.329493 -1.5457162,-1.168119 0.9877517,1.888214 -0.2334997,0.384124 -1.2212514,-1.504089 1.2496992,1.603005 0.4238873,-0.149643 -0.8258118,-1.752648 -0.00289,2.130961 -0.3852652,0.231612 -0.3823791,-1.899349 0.3616004,2.000154 0.4448764,0.06449 0.083276,-1.935667 -0.9928627,1.885531 -0.4487711,0.02604 0.5440916,-1.859491 -0.6093368,1.939092 0.3639497,0.263845 0.9732865,-1.675248 -1.7553865,1.208149 -0.409469,-0.185496 z"
     inkscape:randomized="0"
     inkscape:rounded="-4.31"
     inkscape:flatsided="false"
     sodipodi:arg2="1.0096393"
     sodipodi:arg1="0.76797832"
     sodipodi:r2="0.6310513"
     sodipodi:r1="0.18931538"
     sodipodi:cy="19.311581"
     sodipodi:cx="5.2059736"
     sodipodi:sides="13"
     id="path26"
     style="opacity:1;fill:#b6dde6;fill-opacity:1;stroke:#ffffff;stroke-width:0.0506865;stroke-opacity:1"
     sodipodi:type="star" />
  <path
     transform="matrix(10.020608,0,0,6.4395743,-8.7431275,-2.6432436)"
     inkscape:transform-center-y="0.052376607"
     inkscape:transform-center-x="0.07191749"
     d="M 2.2491108,1.4721453 2.2676998,1.8781314 2.6210952,1.6774278 2.4172407,2.029015 2.8230443,2.0512323 2.4614686,2.2367942 2.7908408,2.4748786 2.3863416,2.4355007 2.5347089,2.8138621 2.2157119,2.5620464 2.1359688,2.9605577 2.0037532,2.5762541 1.7212177,2.8683908 1.817761,2.4736129 1.422136,2.5666236 1.7167865,2.2867106 1.3336801,2.1510652 1.7328883,2.0748874 1.4839341,1.7536523 1.8609542,1.9053957 1.8251935,1.5005607 2.0603243,1.8320479 Z"
     inkscape:randomized="0"
     inkscape:rounded="0"
     inkscape:flatsided="false"
     sodipodi:arg2="-1.066528"
     sodipodi:arg1="-1.3521274"
     sodipodi:r2="0.37701407"
     sodipodi:r1="0.75402814"
     sodipodi:cy="2.2082179"
     sodipodi:cx="2.0855391"
     sodipodi:sides="11"
     id="path15"
     style="opacity:1;fill:#e6e6e6;fill-opacity:1;stroke:#e6e6e6;stroke-width:0.666667;stroke-opacity:1"
     sodipodi:type="star" />
  <path
     id="path27-1"
     d="M 11.69882,18.908977 C 11.095863,18.808886 10.449952,18.565697 9.98343,18.263132 9.764266,18.120991 9.681697,18.091985 9.56868,18.117433 8.303676,18.402264 7.161018,18.367682 6.223161,18.016175 5.568121,17.770672 5.126475,17.470573 4.773191,17.030919 4.587059,16.799282 4.391322,16.39035 4.391322,16.233118 c 0,-0.05771 -0.04285,-0.07833 -0.162805,-0.07833 -0.267157,0 -0.963546,-0.14949 -1.330728,-0.285658 C 2.389172,15.680516 1.809131,15.296893 1.5211257,14.958651 0.9785277,14.321406 0.9232433,13.638823 1.356545,12.926605 L 1.4712533,12.738059 1.1889523,12.554824 C 0.303164,11.979879 -0.05459633,11.267004 0.1461937,10.477015 0.2528107,10.05754 0.6660863,9.5534966 1.153524,9.2484445 1.3592513,9.1196955 1.619471,8.9760085 1.73179,8.9291435 L 1.936007,8.8439305 1.8353573,8.5595955 C 1.6400657,8.0078952 1.7611043,7.4899532 2.211299,6.9508922 2.812564,6.2309405 4.061241,5.7331515 5.265939,5.7331515 h 0.34344 l 0.08505,-0.177973 C 5.95068,5.0189275 6.685218,4.4617022 7.475149,4.2043088 8.15595,3.9824755 8.596469,3.9273945 9.420165,3.9611135 c 0.719912,0.029467 1.047619,0.08936 1.615151,0.295179 l 0.304244,0.1103357 0.255904,-0.1324954 c 0.355287,-0.183952 0.786919,-0.3237943 1.303303,-0.4222513 0.598929,-0.1141953 1.769935,-0.073793 2.326966,0.080285 0.795044,0.219916 1.459717,0.6047103 1.858242,1.0757793 l 0.216157,0.2555047 0.38897,-0.032283 c 0.75937,-0.063023 1.84265,0.145029 2.521968,0.484365 0.842138,0.420668 1.389418,1.0985636 1.413627,1.7510073 0.0046,0.122295 -0.0059,0.308563 -0.0231,0.4139287 -0.02797,0.1708743 -0.02284,0.1915743 0.0474,0.1915743 0.233394,0 1.084259,0.4238693 1.449139,0.7219073 0.687919,0.5619014 0.940261,1.3787559 0.634427,2.0537019 -0.119384,0.26347 -0.423356,0.638432 -0.688806,0.849676 l -0.196677,0.156515 0.265257,0.344134 c 0.281199,0.364818 0.396989,0.666347 0.396989,1.033803 0,0.778092 -0.639229,1.523711 -1.67875,1.958148 -0.284207,0.118772 -0.78443,0.262519 -1.046749,0.300793 -0.08727,0.0127 -0.101251,0.0441 -0.120257,0.269839 -0.03638,0.432121 -0.214335,0.786344 -0.570994,1.136586 -0.443378,0.435401 -1.113292,0.771264 -1.926186,0.965698 -0.425238,0.101708 -1.756798,0.122775 -2.139194,0.03383 -0.23126,-0.05378 -0.235972,-0.05245 -0.420051,0.11858 -0.447624,0.415917 -1.188838,0.755013 -1.992981,0.911764 -0.425454,0.08294 -1.475465,0.09496 -1.915337,0.02194 z m 1.71825,-0.457456 c 0.7713,-0.113716 1.428196,-0.385023 1.922112,-0.793841 0.144711,-0.119786 0.269434,-0.209604 0.27716,-0.199611 0.0077,0.01001 0.242655,0.04489 0.522061,0.07756 1.860201,0.217483 3.709725,-0.722173 3.839943,-1.950892 l 0.02435,-0.229718 0.360939,-0.08875 c 1.025404,-0.252133 1.802849,-0.806574 2.063379,-1.471516 0.199338,-0.508761 0.08323,-1.14893 -0.284267,-1.5673 L 21.9678,12.028291 22.161924,11.867182 c 0.24668,-0.204727 0.544299,-0.614751 0.622962,-0.858244 0.03346,-0.103567 0.06084,-0.31989 0.06084,-0.480713 0,-0.5812954 -0.331453,-1.0915995 -0.975649,-1.5021025 C 21.674552,8.9015275 21.36349,8.7443828 21.178827,8.6769122 L 20.843077,8.5542385 20.84221,8.2037402 C 20.841477,7.9131082 20.82146,7.8065115 20.725038,7.5796525 20.377713,6.7624668 19.401937,6.2024845 18.036647,6.0368262 17.777018,6.0053228 17.422214,5.9946825 17.248194,6.0131762 16.939697,6.0459628 16.929338,6.0433395 16.833445,5.9082958 16.681734,5.6946445 16.239364,5.3408015 15.91206,5.1712985 15.242362,4.8244802 14.517105,4.6866605 13.575092,4.7272075 12.843881,4.7586808 12.522785,4.8292868 11.93064,5.0888062 L 11.550189,5.2555468 11.117841,5.1150348 C 9.807179,4.6890728 8.27496,4.8537358 7.229353,5.5329182 6.921798,5.7326928 6.468803,6.2212005 6.424788,6.4005568 6.403568,6.4870338 6.362418,6.4994698 6.097057,6.4995938 5.471773,6.4998905 4.649736,6.6973768 4.1184,6.9749452 3.16867,7.4710838 2.701135,8.3309582 2.967882,9.0909375 c 0.08342,0.237668 0.08702,0.229236 -0.136787,0.320052 -0.305669,0.1240301 -0.856816,0.5274211 -1.0456883,0.7653515 -0.2669944,0.336345 -0.372547,0.618203 -0.3735607,0.997525 -0.00153,0.575486 0.305664,1.085612 0.890768,1.479166 0.160315,0.107827 0.298137,0.203225 0.306271,0.211986 0.0081,0.0087 -0.03455,0.09161 -0.09486,0.184119 -0.305702,0.468904 -0.30287,1.078694 0.0075,1.604895 0.14997,0.254295 0.590952,0.64455 0.941764,0.833433 0.371283,0.199904 1.010015,0.399156 1.440738,0.449437 l 0.334888,0.03909 0.104894,0.283191 c 0.284057,0.766893 1.212899,1.382574 2.391954,1.585501 0.452152,0.07782 1.712159,0.03101 2.078221,-0.0772 l 0.267847,-0.07918 0.206153,0.150291 c 0.365842,0.266707 1.096852,0.525564 1.786154,0.632493 0.262076,0.04065 1.008306,0.02979 1.343,-0.01957 z"
     style="opacity:1;fill:#b6dde6;fill-opacity:1;stroke:#b6dde6;stroke-width:0.0898427;stroke-opacity:1" />
  <circle
     style="opacity:1;fill:#b6dde6;fill-opacity:1;stroke:none;stroke-width:0.739363;stroke-opacity:1"
     id="path38-5"
     cx="8.1223249"
     cy="21.568159"
     r="0.80500001" />
  <path
     sodipodi:type="star"
     style="opacity:1;fill:#b6dde6;fill-opacity:1;stroke:#ffffff;stroke-width:0.0506865;stroke-opacity:1"
     id="path26-8"
     sodipodi:sides="13"
     sodipodi:cx="5.2059736"
     sodipodi:cy="19.311581"
     sodipodi:r1="0.18931538"
     sodipodi:r2="0.6310513"
     sodipodi:arg1="0.76797832"
     sodipodi:arg2="1.0096393"
     inkscape:flatsided="false"
     inkscape:rounded="-4.31"
     inkscape:randomized="0"
     d="M 5.3421513,19.443095 C 6.6880688,18.04945 3.9014691,20.876903 5.5417978,19.845854 7.1821264,18.814805 3.4260254,20.099848 5.2654353,19.491316 7.1048452,18.882783 3.3234507,20.091371 5.255042,19.940721 7.1866333,19.790071 3.2635817,19.182373 5.1750974,19.498361 7.0866131,19.814349 3.1766955,19.127199 4.9570452,19.89146 6.7373949,20.655722 3.5461166,18.294499 5.0918328,19.462618 6.6375491,20.630737 3.4948236,18.205266 4.716075,19.709356 5.9373264,21.213445 4.2089047,17.639625 5.0347166,19.392273 5.8605284,21.144922 4.2049555,17.536777 4.5873346,19.436126 4.9697137,21.335475 5.1001093,17.367777 5.0168332,19.303443 4.9335571,21.23911 5.1444086,17.274874 4.600317,19.134364 4.0562254,20.993854 6.0155661,17.54123 5.0422796,19.216478 4.0689932,20.891725 6.0979655,17.479555 4.752048,18.8732 c -1.3459175,1.393645 1.9935071,-0.75295 0.3531784,0.278099 -1.6403287,1.031049 1.7419514,-1.047367 -0.097459,-0.438835 -1.8394099,0.608533 2.1150765,0.259725 0.1834852,0.410374 -1.9315913,0.15065 2.0291569,-0.117871 0.1176412,-0.433859 -1.9115156,-0.315988 1.7521075,1.212899 -0.028242,0.448638 -1.7803496,-0.764262 1.8515071,0.838626 0.3057908,-0.329493 -1.5457162,-1.168119 0.9877517,1.888214 -0.2334997,0.384124 -1.2212514,-1.504089 1.2496992,1.603005 0.4238873,-0.149643 -0.8258118,-1.752648 -0.00289,2.130961 -0.3852652,0.231612 -0.3823791,-1.899349 0.3616004,2.000154 0.4448764,0.06449 0.083276,-1.935667 -0.9928627,1.885531 -0.4487711,0.02604 0.5440916,-1.859491 -0.6093368,1.939092 0.3639497,0.263845 0.9732865,-1.675248 -1.7553865,1.208149 -0.409469,-0.185496 z"
     inkscape:transform-center-x="0.0048457531"
     inkscape:transform-center-y="-0.0079508815"
     transform="matrix(1.0000301,0,0,0.99813333,2.915192,2.2949161)" />
  <ellipse
     ry="0.50138557"
     rx="0.55974185"
     style="opacity:1;fill:#b6dde6;fill-opacity:1;stroke:none;stroke-width:0.486566;stroke-opacity:1"
     id="path38-7"
     cx="10.309631"
     cy="19.648193" />
  <path
     sodipodi:type="star"
     style="opacity:1;fill:#b6dde6;fill-opacity:1;stroke:#ffffff;stroke-width:0.0506865;stroke-opacity:1"
     id="path26-6"
     sodipodi:sides="13"
     sodipodi:cx="5.2059736"
     sodipodi:cy="19.311581"
     sodipodi:r1="0.18931538"
     sodipodi:r2="0.6310513"
     sodipodi:arg1="0.76797832"
     sodipodi:arg2="1.0096393"
     inkscape:flatsided="false"
     inkscape:rounded="-4.31"
     inkscape:randomized="0"
     d="M 5.3421513,19.443095 C 6.6880688,18.04945 3.9014691,20.876903 5.5417978,19.845854 7.1821264,18.814805 3.4260254,20.099848 5.2654353,19.491316 7.1048452,18.882783 3.3234507,20.091371 5.255042,19.940721 7.1866333,19.790071 3.2635817,19.182373 5.1750974,19.498361 7.0866131,19.814349 3.1766955,19.127199 4.9570452,19.89146 6.7373949,20.655722 3.5461166,18.294499 5.0918328,19.462618 6.6375491,20.630737 3.4948236,18.205266 4.716075,19.709356 5.9373264,21.213445 4.2089047,17.639625 5.0347166,19.392273 5.8605284,21.144922 4.2049555,17.536777 4.5873346,19.436126 4.9697137,21.335475 5.1001093,17.367777 5.0168332,19.303443 4.9335571,21.23911 5.1444086,17.274874 4.600317,19.134364 4.0562254,20.993854 6.0155661,17.54123 5.0422796,19.216478 4.0689932,20.891725 6.0979655,17.479555 4.752048,18.8732 c -1.3459175,1.393645 1.9935071,-0.75295 0.3531784,0.278099 -1.6403287,1.031049 1.7419514,-1.047367 -0.097459,-0.438835 -1.8394099,0.608533 2.1150765,0.259725 0.1834852,0.410374 -1.9315913,0.15065 2.0291569,-0.117871 0.1176412,-0.433859 -1.9115156,-0.315988 1.7521075,1.212899 -0.028242,0.448638 -1.7803496,-0.764262 1.8515071,0.838626 0.3057908,-0.329493 -1.5457162,-1.168119 0.9877517,1.888214 -0.2334997,0.384124 -1.2212514,-1.504089 1.2496992,1.603005 0.4238873,-0.149643 -0.8258118,-1.752648 -0.00289,2.130961 -0.3852652,0.231612 -0.3823791,-1.899349 0.3616004,2.000154 0.4448764,0.06449 0.083276,-1.935667 -0.9928627,1.885531 -0.4487711,0.02604 0.5440916,-1.859491 -0.6093368,1.939092 0.3639497,0.263845 0.9732865,-1.675248 -1.7553865,1.208149 -0.409469,-0.185496 z"
     inkscape:transform-center-x="0.003369447"
     inkscape:transform-center-y="-0.0049521261"
     transform="matrix(0.6953524,0,0,0.62167656,6.6889477,7.6440625)" />
  <ellipse
     ry="1.1519879"
     rx="1.266662"
     style="opacity:1;fill:#b6dde6;fill-opacity:1;stroke:none;stroke-width:1.10947;stroke-opacity:1"
     id="path38-78"
     cx="12.638858"
     cy="21.571083" />
  <path
     sodipodi:type="star"
     style="opacity:1;fill:#b6dde6;fill-opacity:1;stroke:#ffffff;stroke-width:0.0506865;stroke-opacity:1"
     id="path26-66"
     sodipodi:sides="13"
     sodipodi:cx="5.2059736"
     sodipodi:cy="19.311581"
     sodipodi:r1="0.18931538"
     sodipodi:r2="0.6310513"
     sodipodi:arg1="0.76797832"
     sodipodi:arg2="1.0096393"
     inkscape:flatsided="false"
     inkscape:rounded="-4.31"
     inkscape:randomized="0"
     d="M 5.3421513,19.443095 C 6.6880688,18.04945 3.9014691,20.876903 5.5417978,19.845854 7.1821264,18.814805 3.4260254,20.099848 5.2654353,19.491316 7.1048452,18.882783 3.3234507,20.091371 5.255042,19.940721 7.1866333,19.790071 3.2635817,19.182373 5.1750974,19.498361 7.0866131,19.814349 3.1766955,19.127199 4.9570452,19.89146 6.7373949,20.655722 3.5461166,18.294499 5.0918328,19.462618 6.6375491,20.630737 3.4948236,18.205266 4.716075,19.709356 5.9373264,21.213445 4.2089047,17.639625 5.0347166,19.392273 5.8605284,21.144922 4.2049555,17.536777 4.5873346,19.436126 4.9697137,21.335475 5.1001093,17.367777 5.0168332,19.303443 4.9335571,21.23911 5.1444086,17.274874 4.600317,19.134364 4.0562254,20.993854 6.0155661,17.54123 5.0422796,19.216478 4.0689932,20.891725 6.0979655,17.479555 4.752048,18.8732 c -1.3459175,1.393645 1.9935071,-0.75295 0.3531784,0.278099 -1.6403287,1.031049 1.7419514,-1.047367 -0.097459,-0.438835 -1.8394099,0.608533 2.1150765,0.259725 0.1834852,0.410374 -1.9315913,0.15065 2.0291569,-0.117871 0.1176412,-0.433859 -1.9115156,-0.315988 1.7521075,1.212899 -0.028242,0.448638 -1.7803496,-0.764262 1.8515071,0.838626 0.3057908,-0.329493 -1.5457162,-1.168119 0.9877517,1.888214 -0.2334997,0.384124 -1.2212514,-1.504089 1.2496992,1.603005 0.4238873,-0.149643 -0.8258118,-1.752648 -0.00289,2.130961 -0.3852652,0.231612 -0.3823791,-1.899349 0.3616004,2.000154 0.4448764,0.06449 0.083276,-1.935667 -0.9928627,1.885531 -0.4487711,0.02604 0.5440916,-1.859491 -0.6093368,1.939092 0.3639497,0.263845 0.9732865,-1.675248 -1.7553865,1.208149 -0.409469,-0.185496 z"
     inkscape:transform-center-x="0.0076249119"
     inkscape:transform-center-y="-0.011378855"
     transform="matrix(1.5735405,0,0,1.4283696,4.445466,-6.0097125)" />
  <ellipse
     ry="0.58813256"
     rx="0.55974197"
     style="opacity:1;fill:#b6dde6;fill-opacity:1;stroke:none;stroke-width:0.526979;stroke-opacity:1"
     id="path38-58"
     cx="16.06385"
     cy="19.359035" />
  <path
     sodipodi:type="star"
     style="opacity:1;fill:#b6dde6;fill-opacity:1;stroke:#ffffff;stroke-width:0.0506865;stroke-opacity:1"
     id="path26-3"
     sodipodi:sides="13"
     sodipodi:cx="5.2059736"
     sodipodi:cy="19.311581"
     sodipodi:r1="0.18931538"
     sodipodi:r2="0.6310513"
     sodipodi:arg1="0.76797832"
     sodipodi:arg2="1.0096393"
     inkscape:flatsided="false"
     inkscape:rounded="-4.31"
     inkscape:randomized="0"
     d="M 5.3421513,19.443095 C 6.6880688,18.04945 3.9014691,20.876903 5.5417978,19.845854 7.1821264,18.814805 3.4260254,20.099848 5.2654353,19.491316 7.1048452,18.882783 3.3234507,20.091371 5.255042,19.940721 7.1866333,19.790071 3.2635817,19.182373 5.1750974,19.498361 7.0866131,19.814349 3.1766955,19.127199 4.9570452,19.89146 6.7373949,20.655722 3.5461166,18.294499 5.0918328,19.462618 6.6375491,20.630737 3.4948236,18.205266 4.716075,19.709356 5.9373264,21.213445 4.2089047,17.639625 5.0347166,19.392273 5.8605284,21.144922 4.2049555,17.536777 4.5873346,19.436126 4.9697137,21.335475 5.1001093,17.367777 5.0168332,19.303443 4.9335571,21.23911 5.1444086,17.274874 4.600317,19.134364 4.0562254,20.993854 6.0155661,17.54123 5.0422796,19.216478 4.0689932,20.891725 6.0979655,17.479555 4.752048,18.8732 c -1.3459175,1.393645 1.9935071,-0.75295 0.3531784,0.278099 -1.6403287,1.031049 1.7419514,-1.047367 -0.097459,-0.438835 -1.8394099,0.608533 2.1150765,0.259725 0.1834852,0.410374 -1.9315913,0.15065 2.0291569,-0.117871 0.1176412,-0.433859 -1.9115156,-0.315988 1.7521075,1.212899 -0.028242,0.448638 -1.7803496,-0.764262 1.8515071,0.838626 0.3057908,-0.329493 -1.5457162,-1.168119 0.9877517,1.888214 -0.2334997,0.384124 -1.2212514,-1.504089 1.2496992,1.603005 0.4238873,-0.149643 -0.8258118,-1.752648 -0.00289,2.130961 -0.3852652,0.231612 -0.3823791,-1.899349 0.3616004,2.000154 0.4448764,0.06449 0.083276,-1.935667 -0.9928627,1.885531 -0.4487711,0.02604 0.5440916,-1.859491 -0.6093368,1.939092 0.3639497,0.263845 0.9732865,-1.675248 -1.7553865,1.208149 -0.409469,-0.185496 z"
     inkscape:transform-center-x="0.0033692131"
     inkscape:transform-center-y="-0.0058087938"
     transform="matrix(0.69535259,0,0,0.72923564,12.443164,5.2707883)" />
  <circle
     style="opacity:1;fill:#b6dde6;fill-opacity:1;stroke:none;stroke-width:0.739363;stroke-opacity:1"
     id="path38-52"
     cx="18.434608"
     cy="20.578735"
     r="0.80500001" />
  <path
     sodipodi:type="star"
     style="opacity:1;fill:#b6dde6;fill-opacity:1;stroke:#ffffff;stroke-width:0.0506865;stroke-opacity:1"
     id="path26-35"
     sodipodi:sides="13"
     sodipodi:cx="5.2059736"
     sodipodi:cy="19.311581"
     sodipodi:r1="0.18931538"
     sodipodi:r2="0.6310513"
     sodipodi:arg1="0.76797832"
     sodipodi:arg2="1.0096393"
     inkscape:flatsided="false"
     inkscape:rounded="-4.31"
     inkscape:randomized="0"
     d="M 5.3421513,19.443095 C 6.6880688,18.04945 3.9014691,20.876903 5.5417978,19.845854 7.1821264,18.814805 3.4260254,20.099848 5.2654353,19.491316 7.1048452,18.882783 3.3234507,20.091371 5.255042,19.940721 7.1866333,19.790071 3.2635817,19.182373 5.1750974,19.498361 7.0866131,19.814349 3.1766955,19.127199 4.9570452,19.89146 6.7373949,20.655722 3.5461166,18.294499 5.0918328,19.462618 6.6375491,20.630737 3.4948236,18.205266 4.716075,19.709356 5.9373264,21.213445 4.2089047,17.639625 5.0347166,19.392273 5.8605284,21.144922 4.2049555,17.536777 4.5873346,19.436126 4.9697137,21.335475 5.1001093,17.367777 5.0168332,19.303443 4.9335571,21.23911 5.1444086,17.274874 4.600317,19.134364 4.0562254,20.993854 6.0155661,17.54123 5.0422796,19.216478 4.0689932,20.891725 6.0979655,17.479555 4.752048,18.8732 c -1.3459175,1.393645 1.9935071,-0.75295 0.3531784,0.278099 -1.6403287,1.031049 1.7419514,-1.047367 -0.097459,-0.438835 -1.8394099,0.608533 2.1150765,0.259725 0.1834852,0.410374 -1.9315913,0.15065 2.0291569,-0.117871 0.1176412,-0.433859 -1.9115156,-0.315988 1.7521075,1.212899 -0.028242,0.448638 -1.7803496,-0.764262 1.8515071,0.838626 0.3057908,-0.329493 -1.5457162,-1.168119 0.9877517,1.888214 -0.2334997,0.384124 -1.2212514,-1.504089 1.2496992,1.603005 0.4238873,-0.149643 -0.8258118,-1.752648 -0.00289,2.130961 -0.3852652,0.231612 -0.3823791,-1.899349 0.3616004,2.000154 0.4448764,0.06449 0.083276,-1.935667 -0.9928627,1.885531 -0.4487711,0.02604 0.5440916,-1.859491 -0.6093368,1.939092 0.3639497,0.263845 0.9732865,-1.675248 -1.7553865,1.208149 -0.409469,-0.185496 z"
     inkscape:transform-center-x="0.0048457531"
     inkscape:transform-center-y="-0.0079508815"
     transform="matrix(1.0000301,0,0,0.99813333,13.227472,1.3054963)" />
</svg>
