<?xml version="1.0" encoding="UTF-8" standalone="no"?>
<svg
   xmlns:dc="http://purl.org/dc/elements/1.1/"
   xmlns:cc="http://creativecommons.org/ns#"
   xmlns:rdf="http://www.w3.org/1999/02/22-rdf-syntax-ns#"
   xmlns:svg="http://www.w3.org/2000/svg"
   xmlns="http://www.w3.org/2000/svg"
   xmlns:xlink="http://www.w3.org/1999/xlink"
   xmlns:sodipodi="http://sodipodi.sourceforge.net/DTD/sodipodi-0.dtd"
   xmlns:inkscape="http://www.inkscape.org/namespaces/inkscape"
   width="72"
   height="72"
   viewBox="0 0 24 24"
   fill="none"
   stroke="#ff8400"
   stroke-width="2"
   stroke-linecap="round"
   stroke-linejoin="round"
   class="feather feather-sun"
   version="1.1"
   id="svg20"
   sodipodi:docname="mysun.svg"
   inkscape:version="1.0 (4035a4fb49, 2020-05-01)">
  <metadata
     id="metadata26">
    <rdf:RDF>
      <cc:Work
         rdf:about="">
        <dc:format>image/svg+xml</dc:format>
        <dc:type
           rdf:resource="http://purl.org/dc/dcmitype/StillImage" />
        <dc:title />
      </cc:Work>
    </rdf:RDF>
  </metadata>
  <defs
     id="defs24">
    <linearGradient
       id="linearGradient1369"
       inkscape:collect="always">
      <stop
         id="stop1365"
         offset="0"
         style="stop-color:#ffff00;stop-opacity:1;" />
      <stop
         id="stop1367"
         offset="1"
         style="stop-color:#ffff00;stop-opacity:0;" />
    </linearGradient>
    <linearGradient
       id="linearGradient209"
       inkscape:collect="always">
      <stop
         id="stop205"
         offset="0"
         style="stop-color:#ffffff;stop-opacity:1;" />
      <stop
         id="stop207"
         offset="1"
         style="stop-color:#ffffff;stop-opacity:0;" />
    </linearGradient>
    <linearGradient
       id="linearGradient111"
       inkscape:collect="always">
      <stop
         id="stop107"
         offset="0"
         style="stop-color:#ff6600;stop-opacity:1;" />
      <stop
         id="stop109"
         offset="1"
         style="stop-color:#ff6600;stop-opacity:0;" />
    </linearGradient>
    <clipPath
       id="clipPath43"
       clipPathUnits="userSpaceOnUse">
      <path
         d="M -14.697917,-14.371094 V 38.98828 H 38.66146 V -14.371094 Z M 0.11783854,14.567708 c 0.0193735,0.0092 0.0315231,0.04817 0.0449219,0.08399 0.10718783,-0.03767 0.0870937,6.66e-4 0.0286458,0.05924 0.0896145,0.121268 0.17940839,0.242559 0.27473959,0.359376 0.46829323,0.573837 0.96581247,1.125579 1.51041667,1.628254 0.089019,0.07799 0.1778702,0.157177 0.2675781,0.234375 0.079003,0.06799 0.1621087,0.130734 0.2389323,0.201172 0.096448,0.08843 0.1857213,0.183944 0.2799479,0.27474 0.1447678,0.139497 0.2911293,0.278165 0.436849,0.416666 0.7012209,0.66649 0.3634809,0.366452 1.0859375,0.963542 0.1197787,0.07658 0.2346167,0.160998 0.359375,0.229167 0.6904284,0.377258 0.091161,-0.05075 0.9277344,0.460937 0.6256193,0.382654 1.2920613,0.883292 1.8164063,1.381511 0.296096,0.281343 0.5495237,0.604627 0.8242187,0.906901 0.272257,0.29959 -0.042738,0.560559 -0.3151044,0.261068 C 7.627894,21.731157 7.3783117,21.412819 7.0865887,21.136067 6.5929087,20.667724 5.9371713,20.179464 5.345052,19.81901 4.5686443,19.346371 5.1254697,19.746694 4.4739583,19.389974 4.3333,19.31296 4.2028593,19.219404 4.0670573,19.134114 3.301702,18.507099 3.6477177,18.814331 2.9186198,18.122396 2.7724725,17.983698 2.6262083,17.844883 2.4811198,17.705078 2.3855521,17.61299 2.2943945,17.516172 2.1966146,17.426432 2.1275002,17.363005 2.0523038,17.307193 1.9811198,17.246093 1.8891671,17.167171 1.7988473,17.08634 1.7076823,17.00651 1.1478351,16.490823 0.6355679,15.92436 0.15429687,15.335286 0.05237158,15.21053 -0.04279182,15.080636 -0.13867187,14.951172 c -0.0624212,0.0309 -0.0914684,0.03114 -0.0397135,-0.03906 -0.0439184,-0.03965 -0.0974376,-0.08102 -0.0644531,-0.113281 0.0549057,-0.0537 0.12798964,-0.07855 0.20507812,-0.09701 0.03698058,-0.05292 0.0781233,-0.100957 0.13346355,-0.132162 0.0083569,-0.0047 0.0156776,-0.005 0.0221354,-0.002 z"
         style="fill:#ff0000;fill-opacity:1;fill-rule:nonzero;stroke:none;stroke-width:0.666667"
         id="path45" />
    </clipPath>
    <radialGradient
       gradientUnits="userSpaceOnUse"
       gradientTransform="matrix(2.4879381,1.005378,-0.91343554,2.2603576,-23.052866,-20.489012)"
       r="4.7855425"
       fy="12.743967"
       fx="7.2210288"
       cy="12.743967"
       cx="7.2210288"
       id="radialGradient113"
       xlink:href="#linearGradient111"
       inkscape:collect="always" />
    <linearGradient
       gradientTransform="matrix(1.2067596,0,0,1.2067596,-2.6032329,-2.4635534)"
       gradientUnits="userSpaceOnUse"
       y2="9.6000004"
       x2="9.0506029"
       y1="9.0506029"
       x1="8.5301208"
       id="linearGradient211"
       xlink:href="#linearGradient209"
       inkscape:collect="always" />
    <clipPath
       id="clipPath455"
       clipPathUnits="userSpaceOnUse">
      <ellipse
         style="opacity:0.66;fill:#ff0000;fill-opacity:1;stroke:none;stroke-width:0.626067"
         id="ellipse457"
         cx="11.915274"
         cy="12.262877"
         rx="9.0795174"
         ry="8.9204817" />
    </clipPath>
    <radialGradient
       gradientUnits="userSpaceOnUse"
       gradientTransform="matrix(-1.1684442,0.06771292,-0.05080838,-0.87673262,38.674247,16.635606)"
       r="9.6815004"
       fy="8.1918049"
       fx="21.890295"
       cy="8.1918049"
       cx="21.890295"
       id="radialGradient1371"
       xlink:href="#linearGradient1369"
       inkscape:collect="always" />
    <radialGradient
       gradientUnits="userSpaceOnUse"
       gradientTransform="matrix(0.40986919,0.58029288,-0.45517248,0.34525506,9.8348765,2.0006532)"
       r="9.4583331"
       fy="6.8713174"
       fx="10.782175"
       cy="6.8713174"
       cx="10.782175"
       id="radialGradient1444"
       xlink:href="#linearGradient1369"
       inkscape:collect="always" />
  </defs>
  <sodipodi:namedview
     inkscape:document-rotation="0"
     pagecolor="#ffffff"
     bordercolor="#666666"
     borderopacity="1"
     objecttolerance="10"
     gridtolerance="10"
     guidetolerance="10"
     inkscape:pageopacity="0"
     inkscape:pageshadow="2"
     inkscape:window-width="1920"
     inkscape:window-height="1001"
     id="namedview22"
     showgrid="false"
     inkscape:zoom="11.527778"
     inkscape:cx="26.081349"
     inkscape:cy="27.848225"
     inkscape:window-x="-9"
     inkscape:window-y="-9"
     inkscape:window-maximized="1"
     inkscape:current-layer="svg20">
    <inkscape:grid
       id="grid49"
       type="xygrid" />
  </sodipodi:namedview>
  <ellipse
     ry="11.255045"
     rx="11.683244"
     cy="11.408561"
     cx="12.046022"
     id="path1287"
     style="opacity:1;fill:url(#radialGradient1371);fill-opacity:1;stroke:none;stroke-width:1.18032;stroke-opacity:1" />
  <path
     transform="matrix(1.2352388,0,0,1.1919775,-2.9477523,-2.3976679)"
     inkscape:transform-center-y="0.031258443"
     inkscape:transform-center-x="0.20562607"
     d="m 21.166186,14.448861 -4.871315,-0.618279 3.228451,3.699876 -4.319017,-2.33625 1.673892,4.616282 -3.183414,-3.738697 -0.106736,4.909235 -1.617871,-4.636213 -1.872948,4.539167 L 10.263401,15.9764 6.8771925,19.532461 8.8049676,15.016305 4.3628247,17.108994 7.7918451,13.594197 2.893704,13.940883 7.3608613,11.902138 2.6682432,10.456001 7.5702231,10.168651 3.716892,7.1249987 8.391655,8.627852 5.8980245,4.3977474 9.714218,7.4878356 8.9170669,2.6425774 l 2.4422261,4.2599895 1.006988,-4.806033 0.738422,4.8545557 2.675127,-4.1177263 -1.065109,4.7934871 3.981976,-2.8732979 -2.724792,4.0850317 4.751037,-1.2408147 -4.016477,2.8248695 4.878444,0.559248 -4.765714,1.183194 z"
     inkscape:randomized="0"
     inkscape:rounded="0"
     inkscape:flatsided="false"
     sodipodi:arg2="0.48979192"
     sodipodi:arg1="0.30499235"
     sodipodi:r2="4.7512622"
     sodipodi:r1="9.5025234"
     sodipodi:cy="11.595387"
     sodipodi:cx="12.102211"
     sodipodi:sides="17"
     id="path1285"
     style="opacity:1;fill:#ff0000;fill-opacity:0.670588;stroke:none;stroke-width:0.386991;stroke-opacity:1"
     sodipodi:type="star" />
  <path
     sodipodi:type="star"
     style="opacity:1;fill:url(#radialGradient1444);fill-opacity:1;stroke:none;stroke-width:0.386991;stroke-opacity:1"
     id="path1285-5"
     sodipodi:sides="17"
     sodipodi:cx="12.102211"
     sodipodi:cy="11.595387"
     sodipodi:r1="9.5025234"
     sodipodi:r2="4.7512622"
     sodipodi:arg1="0.30499235"
     sodipodi:arg2="0.48979192"
     inkscape:flatsided="false"
     inkscape:rounded="0"
     inkscape:randomized="0"
     d="m 21.166186,14.448861 -4.871315,-0.618279 3.228451,3.699876 -4.319017,-2.33625 1.673892,4.616282 -3.183414,-3.738697 -0.106736,4.909235 -1.617871,-4.636213 -1.872948,4.539167 L 10.263401,15.9764 6.8771925,19.532461 8.8049676,15.016305 4.3628247,17.108994 7.7918451,13.594197 2.893704,13.940883 7.3608613,11.902138 2.6682432,10.456001 7.5702231,10.168651 3.716892,7.1249987 8.391655,8.627852 5.8980245,4.3977474 9.714218,7.4878356 8.9170669,2.6425774 l 2.4422261,4.2599895 1.006988,-4.806033 0.738422,4.8545557 2.675127,-4.1177263 -1.065109,4.7934871 3.981976,-2.8732979 -2.724792,4.0850317 4.751037,-1.2408147 -4.016477,2.8248695 4.878444,0.559248 -4.765714,1.183194 z"
     inkscape:transform-center-x="0.20562607"
     inkscape:transform-center-y="0.031258349"
     transform="matrix(1.2352388,0,0,1.1919775,-2.9477523,-2.397668)" />
  <ellipse
     ry="5.4435034"
     rx="5.7749991"
     cy="11.494148"
     cx="11.930224"
     id="path51"
     style="opacity:1;fill:#ffff00;stroke:none;stroke-width:0.804507" />
  <ellipse
     transform="scale(-1,1)"
     style="opacity:1;fill:url(#radialGradient113);fill-opacity:1;stroke:none;stroke-width:0.804507"
     id="path51-6"
     cx="-11.947672"
     cy="11.494149"
     rx="5.7749991"
     ry="5.4435034" />
  <ellipse
     ry="5.4435034"
     rx="5.7749991"
     cy="11.529043"
     cx="11.912776"
     id="path51-6-1"
     style="opacity:0.85;fill:url(#linearGradient211);fill-opacity:1;stroke:none;stroke-width:0.804507" />
</svg>
