<?xml version="1.0" encoding="UTF-8" standalone="no"?>
<svg
   xmlns:dc="http://purl.org/dc/elements/1.1/"
   xmlns:cc="http://creativecommons.org/ns#"
   xmlns:rdf="http://www.w3.org/1999/02/22-rdf-syntax-ns#"
   xmlns:svg="http://www.w3.org/2000/svg"
   xmlns="http://www.w3.org/2000/svg"
   xmlns:sodipodi="http://sodipodi.sourceforge.net/DTD/sodipodi-0.dtd"
   xmlns:inkscape="http://www.inkscape.org/namespaces/inkscape"
   inkscape:version="1.0 (4035a4fb49, 2020-05-01)"
   sodipodi:docname="snow2.svg"
   id="svg16"
   version="1.1"
   class="feather feather-cloud-snow"
   stroke-linejoin="round"
   stroke-linecap="round"
   stroke-width="2"
   stroke="#b6dde6"
   fill="none"
   viewBox="0 0 24 24"
   height="72"
   width="72">
  <metadata
     id="metadata22">
    <rdf:RDF>
      <cc:Work
         rdf:about="">
        <dc:format>image/svg+xml</dc:format>
        <dc:type
           rdf:resource="http://purl.org/dc/dcmitype/StillImage" />
      </cc:Work>
    </rdf:RDF>
  </metadata>
  <defs
     id="defs20" />
  <sodipodi:namedview
     inkscape:current-layer="svg16"
     inkscape:window-maximized="1"
     inkscape:window-y="-9"
     inkscape:window-x="-9"
     inkscape:cy="45.122618"
     inkscape:cx="26.879958"
     inkscape:zoom="16.30274"
     showgrid="false"
     id="namedview18"
     inkscape:window-height="1001"
     inkscape:window-width="1920"
     inkscape:pageshadow="2"
     inkscape:pageopacity="0"
     guidetolerance="10"
     gridtolerance="10"
     objecttolerance="10"
     borderopacity="1"
     bordercolor="#666666"
     pagecolor="#ffffff" />
  <path
     style="fill:#e6e6e6"
     id="path2"
     d="M20 17.58A5 5 0 0 0 18 8h-1.26A8 8 0 1 0 4 16.25" />
  <line
     style="fill:#ffffff"
     id="line4"
     y2="16"
     x2="8.01"
     y1="16"
     x1="8" />
  <line
     id="line6"
     y2="20"
     x2="8.01"
     y1="20"
     x1="8" />
  <line
     id="line8"
     y2="18"
     x2="12.01"
     y1="18"
     x1="12" />
  <line
     id="line10"
     y2="22"
     x2="12.01"
     y1="22"
     x1="12" />
  <line
     id="line12"
     y2="16"
     x2="16.01"
     y1="16"
     x1="16" />
  <line
     id="line14"
     y2="20"
     x2="16.01"
     y1="20"
     x1="16" />
  <circle
     r="0.00011347786"
     cy="15.610873"
     cx="7.5140743"
     style="fill:#ffffff;stroke:#ffffff;stroke-width:0.666667"
     id="path86" />
  <path
     inkscape:transform-center-y="-0.045367365"
     inkscape:transform-center-x="0.0056528453"
     d="m 8.3319327,16.428731 -0.23634,-0.169287 -0.07251,0.281526 -0.091699,-0.275873 -0.2241391,0.185139 0.087969,-0.277086 -0.2901543,0.01804 0.2340348,-0.17246 -0.2453404,-0.155958 0.2907076,-0.002 -0.1068148,-0.27038 0.2363401,0.169287 0.07251,-0.281526 0.091699,0.275874 0.2241391,-0.185139 -0.087969,0.277085 0.2901543,-0.01803 -0.2340348,0.17246 0.2453404,0.155958 -0.2907076,0.002 z"
     inkscape:randomized="0"
     inkscape:rounded="0"
     inkscape:flatsided="false"
     sodipodi:arg2="1.2222261"
     sodipodi:arg1="0.90806682"
     sodipodi:r2="0.26585314"
     sodipodi:r1="0.53170627"
     sodipodi:cy="16.009579"
     sodipodi:cx="8.0047895"
     sodipodi:sides="10"
     id="path126"
     style="fill:#ffffff;stroke:#ffffff;stroke-width:0.666667"
     sodipodi:type="star" />
  <path
     sodipodi:type="star"
     style="fill:#ffffff;stroke:#ffffff;stroke-width:0.666667"
     id="path126-4"
     sodipodi:sides="10"
     sodipodi:cx="12.012296"
     sodipodi:cy="17.992885"
     sodipodi:r1="0.53170627"
     sodipodi:r2="0.26585314"
     sodipodi:arg1="0.90806682"
     sodipodi:arg2="1.2222261"
     inkscape:flatsided="false"
     inkscape:rounded="0"
     inkscape:randomized="0"
     d="m 12.339439,18.412038 -0.23634,-0.169287 -0.07251,0.281526 -0.0917,-0.275873 -0.224139,0.185139 0.08797,-0.277086 -0.290154,0.01804 0.234035,-0.17246 -0.24534,-0.155958 0.290707,-0.002 -0.106815,-0.27038 0.23634,0.169287 0.07251,-0.281526 0.0917,0.275874 0.22414,-0.185139 -0.08797,0.277085 0.290154,-0.01804 -0.234035,0.17246 0.245341,0.155958 -0.290708,0.002 z"
     inkscape:transform-center-x="0.0056528453"
     inkscape:transform-center-y="-0.045367365" />
  <path
     sodipodi:type="star"
     style="fill:#ffffff;stroke:#ffffff;stroke-width:0.666667"
     id="path126-8"
     sodipodi:sides="10"
     sodipodi:cx="16.009579"
     sodipodi:cy="16.009578"
     sodipodi:r1="0.53170627"
     sodipodi:r2="0.26585314"
     sodipodi:arg1="0.90806682"
     sodipodi:arg2="1.2222261"
     inkscape:flatsided="false"
     inkscape:rounded="0"
     inkscape:randomized="0"
     d="m 16.336722,16.428731 -0.23634,-0.169287 -0.07251,0.281526 -0.0917,-0.275873 -0.224139,0.185139 0.08797,-0.277086 -0.290154,0.01804 0.234035,-0.17246 -0.24534,-0.155958 0.290707,-0.002 -0.106815,-0.27038 0.23634,0.169287 0.07251,-0.281526 0.0917,0.275874 0.22414,-0.185139 -0.08797,0.277085 0.290154,-0.01803 -0.234035,0.17246 0.245341,0.155958 -0.290708,0.002 z"
     inkscape:transform-center-x="0.0056528453"
     inkscape:transform-center-y="-0.045367365" />
  <path
     sodipodi:type="star"
     style="fill:#ffffff;stroke:#ffffff;stroke-width:0.666667"
     id="path126-88"
     sodipodi:sides="10"
     sodipodi:cx="7.9945665"
     sodipodi:cy="19.996639"
     sodipodi:r1="0.53170627"
     sodipodi:r2="0.26585314"
     sodipodi:arg1="0.90806682"
     sodipodi:arg2="1.2222261"
     inkscape:flatsided="false"
     inkscape:rounded="0"
     inkscape:randomized="0"
     d="m 8.3217098,20.415792 -0.2363401,-0.169287 -0.07251,0.281526 -0.091699,-0.275874 -0.2241391,0.185139 0.087969,-0.277085 -0.2901543,0.01804 0.2340348,-0.17246 -0.2453404,-0.155958 0.2907076,-0.002 -0.1068148,-0.27038 0.23634,0.169287 0.07251,-0.281526 0.091699,0.275873 0.2241391,-0.185139 -0.087969,0.277086 0.2901543,-0.01804 -0.2340348,0.17246 0.2453404,0.155958 -0.2907076,0.002 z"
     inkscape:transform-center-x="0.0056528453"
     inkscape:transform-center-y="-0.045367365" />
  <path
     sodipodi:type="star"
     style="fill:#ffffff;stroke:#ffffff;stroke-width:0.666667"
     id="path126-2"
     sodipodi:sides="10"
     sodipodi:cx="12.022519"
     sodipodi:cy="22.000393"
     sodipodi:r1="0.53170627"
     sodipodi:r2="0.26585314"
     sodipodi:arg1="0.90806682"
     sodipodi:arg2="1.2222261"
     inkscape:flatsided="false"
     inkscape:rounded="0"
     inkscape:randomized="0"
     d="m 12.349662,22.419545 -0.23634,-0.169287 -0.07251,0.281526 -0.0917,-0.275873 -0.224139,0.185139 0.08797,-0.277085 -0.290154,0.01803 0.234034,-0.172461 -0.24534,-0.155957 0.290708,-0.002 -0.106815,-0.270381 0.23634,0.169288 0.07251,-0.281527 0.0917,0.275874 0.224139,-0.185139 -0.08797,0.277085 0.290155,-0.01804 -0.234035,0.17246 0.24534,0.155958 -0.290707,0.002 z"
     inkscape:transform-center-x="0.0056528453"
     inkscape:transform-center-y="-0.045367365" />
  <path
     sodipodi:type="star"
     style="fill:#ffffff;stroke:#ffffff;stroke-width:0.666667"
     id="path126-6"
     sodipodi:sides="10"
     sodipodi:cx="16.009578"
     sodipodi:cy="20.017086"
     sodipodi:r1="0.53170627"
     sodipodi:r2="0.26585314"
     sodipodi:arg1="0.90806682"
     sodipodi:arg2="1.2222261"
     inkscape:flatsided="false"
     inkscape:rounded="0"
     inkscape:randomized="0"
     d="m 16.336722,20.436238 -0.23634,-0.169287 -0.07251,0.281527 -0.0917,-0.275874 -0.224139,0.185139 0.08797,-0.277085 -0.290154,0.01803 0.234035,-0.172461 -0.24534,-0.155957 0.290707,-0.002 -0.106815,-0.27038 0.23634,0.169287 0.07251,-0.281526 0.0917,0.275873 0.22414,-0.185139 -0.08797,0.277085 0.290154,-0.01804 -0.234035,0.172461 0.245341,0.155957 -0.290708,0.002 z"
     inkscape:transform-center-x="0.0056528453"
     inkscape:transform-center-y="-0.045367365" />
</svg>
