<?xml version="1.0" encoding="UTF-8" standalone="no"?>
<svg
   xmlns:dc="http://purl.org/dc/elements/1.1/"
   xmlns:cc="http://creativecommons.org/ns#"
   xmlns:rdf="http://www.w3.org/1999/02/22-rdf-syntax-ns#"
   xmlns:svg="http://www.w3.org/2000/svg"
   xmlns="http://www.w3.org/2000/svg"
   xmlns:xlink="http://www.w3.org/1999/xlink"
   xmlns:sodipodi="http://sodipodi.sourceforge.net/DTD/sodipodi-0.dtd"
   xmlns:inkscape="http://www.inkscape.org/namespaces/inkscape"
   inkscape:version="1.0 (4035a4fb49, 2020-05-01)"
   sodipodi:docname="sun2.svg"
   id="svg20"
   version="1.1"
   class="feather feather-sun"
   stroke-linejoin="round"
   stroke-linecap="round"
   stroke-width="2"
   stroke="#ff8400"
   fill="none"
   viewBox="0 0 24 24"
   height="72"
   width="72">
  <metadata
     id="metadata26">
    <rdf:RDF>
      <cc:Work
         rdf:about="">
        <dc:format>image/svg+xml</dc:format>
        <dc:type
           rdf:resource="http://purl.org/dc/dcmitype/StillImage" />
        <dc:title></dc:title>
      </cc:Work>
    </rdf:RDF>
  </metadata>
  <defs
     id="defs24">
    <linearGradient
       id="linearGradient461"
       inkscape:collect="always">
      <stop
         id="stop457"
         offset="0"
         style="stop-color:#ffffff;stop-opacity:1;" />
      <stop
         id="stop459"
         offset="1"
         style="stop-color:#ffffff;stop-opacity:0;" />
    </linearGradient>
    <linearGradient
       id="linearGradient259"
       inkscape:collect="always">
      <stop
         id="stop255"
         offset="0"
         style="stop-color:#ffff00;stop-opacity:1;" />
      <stop
         id="stop257"
         offset="1"
         style="stop-color:#ffff00;stop-opacity:0;" />
    </linearGradient>
    <linearGradient
       id="linearGradient251"
       inkscape:collect="always">
      <stop
         id="stop247"
         offset="0"
         style="stop-color:#ffff00;stop-opacity:1;" />
      <stop
         id="stop249"
         offset="1"
         style="stop-color:#ffff00;stop-opacity:0;" />
    </linearGradient>
    <linearGradient
       id="linearGradient243"
       inkscape:collect="always">
      <stop
         id="stop239"
         offset="0"
         style="stop-color:#ffff00;stop-opacity:1;" />
      <stop
         id="stop241"
         offset="1"
         style="stop-color:#ffff00;stop-opacity:0;" />
    </linearGradient>
    <linearGradient
       id="linearGradient235"
       inkscape:collect="always">
      <stop
         id="stop231"
         offset="0"
         style="stop-color:#ffff00;stop-opacity:1;" />
      <stop
         id="stop233"
         offset="1"
         style="stop-color:#ffff00;stop-opacity:0;" />
    </linearGradient>
    <linearGradient
       id="linearGradient227"
       inkscape:collect="always">
      <stop
         id="stop223"
         offset="0"
         style="stop-color:#ffff00;stop-opacity:1;" />
      <stop
         id="stop225"
         offset="1"
         style="stop-color:#ffff00;stop-opacity:0;" />
    </linearGradient>
    <linearGradient
       id="linearGradient219"
       inkscape:collect="always">
      <stop
         id="stop215"
         offset="0"
         style="stop-color:#ffff00;stop-opacity:1;" />
      <stop
         id="stop217"
         offset="1"
         style="stop-color:#ffff00;stop-opacity:0;" />
    </linearGradient>
    <linearGradient
       id="linearGradient211"
       inkscape:collect="always">
      <stop
         id="stop207"
         offset="0"
         style="stop-color:#ffff00;stop-opacity:1;" />
      <stop
         id="stop209"
         offset="1"
         style="stop-color:#ffff00;stop-opacity:0;" />
    </linearGradient>
    <linearGradient
       id="linearGradient203"
       inkscape:collect="always">
      <stop
         id="stop199"
         offset="0"
         style="stop-color:#ffff00;stop-opacity:1;" />
      <stop
         id="stop201"
         offset="1"
         style="stop-color:#ffff00;stop-opacity:0;" />
    </linearGradient>
    <linearGradient
       gradientUnits="userSpaceOnUse"
       y2="6.7373495"
       x2="1.3301204"
       y1="9.1373491"
       x1="6.33253"
       id="linearGradient205"
       xlink:href="#linearGradient203"
       inkscape:collect="always" />
    <linearGradient
       gradientTransform="scale(3)"
       gradientUnits="userSpaceOnUse"
       y2="1.2144579"
       x2="7.8650603"
       y1="5.66747"
       x1="9.8024092"
       id="linearGradient213"
       xlink:href="#linearGradient211"
       inkscape:collect="always" />
    <linearGradient
       gradientUnits="userSpaceOnUse"
       y2="0.95421684"
       x2="17.291567"
       y1="5.9855423"
       x1="14.139759"
       id="linearGradient221"
       xlink:href="#linearGradient219"
       inkscape:collect="always" />
    <linearGradient
       gradientUnits="userSpaceOnUse"
       y2="7.7493978"
       x2="22.756626"
       y1="9.8891563"
       x1="18.072289"
       id="linearGradient229"
       xlink:href="#linearGradient227"
       inkscape:collect="always" />
    <linearGradient
       gradientUnits="userSpaceOnUse"
       y2="17.349398"
       x2="22.438555"
       y1="14.371084"
       x1="17.812048"
       id="linearGradient237"
       xlink:href="#linearGradient235"
       inkscape:collect="always" />
    <linearGradient
       gradientUnits="userSpaceOnUse"
       y2="22.987951"
       x2="16.279518"
       y1="18.130121"
       x1="14.515662"
       id="linearGradient245"
       xlink:href="#linearGradient243"
       inkscape:collect="always" />
    <linearGradient
       gradientUnits="userSpaceOnUse"
       y2="23.045784"
       x2="7.546988"
       y1="18.043373"
       x1="9.2240963"
       id="linearGradient253"
       xlink:href="#linearGradient251"
       inkscape:collect="always" />
    <linearGradient
       gradientUnits="userSpaceOnUse"
       y2="17.638554"
       x2="0.31807229"
       y1="14.139759"
       x1="5.7253013"
       id="linearGradient261"
       xlink:href="#linearGradient259"
       inkscape:collect="always" />
    <linearGradient
       gradientTransform="matrix(0.93048128,0,0,0.91883116,0.74948789,0.90877808)"
       gradientUnits="userSpaceOnUse"
       y2="9.0216866"
       x2="15.816868"
       y1="16.886747"
       x1="5.3204818"
       id="linearGradient463"
       xlink:href="#linearGradient461"
       inkscape:collect="always" />
  </defs>
  <sodipodi:namedview
     inkscape:current-layer="svg20"
     inkscape:window-maximized="1"
     inkscape:window-y="-9"
     inkscape:window-x="-9"
     inkscape:cy="36.736627"
     inkscape:cx="36"
     inkscape:zoom="4.0756849"
     showgrid="false"
     id="namedview22"
     inkscape:window-height="1001"
     inkscape:window-width="1920"
     inkscape:pageshadow="2"
     inkscape:pageopacity="0"
     guidetolerance="10"
     gridtolerance="10"
     objecttolerance="10"
     borderopacity="1"
     bordercolor="#666666"
     pagecolor="#ffffff" />
  <circle
     style="fill:#ffff00"
     id="circle2"
     r="5"
     cy="12"
     cx="12" />
  <path
     transform="scale(0.33333333)"
     d="M 36,3 V 9 Z"
     style="stroke-width:6"
     id="line4" />
  <line
     id="line6"
     y2="23"
     x2="12"
     y1="21"
     x1="12" />
  <path
     d="m 12.660156,12.660156 4.259766,4.259766 z"
     transform="scale(0.33333333)"
     style="stroke-width:6"
     id="line8" />
  <line
     id="line10"
     y2="19.78"
     x2="19.78"
     y1="18.36"
     x1="18.36" />
  <line
     id="line12"
     y2="12"
     x2="3"
     y1="12"
     x1="1" />
  <line
     id="line14"
     y2="12"
     x2="23"
     y1="12"
     x1="21" />
  <line
     id="line16"
     y2="18.36"
     x2="5.64"
     y1="19.78"
     x1="4.22" />
  <line
     id="line18"
     y2="4.22"
     x2="19.78"
     y1="5.64"
     x1="18.36" />
  <ellipse
     ry="4.453012"
     rx="5.4072289"
     cy="11.971085"
     cx="12.028915"
     id="path28"
     style="fill:#ffff00;fill-rule:evenodd;stroke-width:0.666667" />
  <path
     d="M 5.8622979,9.1046942 C 5.5344689,9.2528916 5.1691596,9.2726296 4.815434,9.2968362 4.528179,9.3032862 4.227149,9.2842662 3.9640913,9.1557219 3.8252776,9.0878896 3.7804833,9.0386649 3.6637526,8.9411699 3.4145553,8.6853159 3.276778,8.3552249 3.1554564,8.0254099 3.0701454,7.8098769 2.9884403,7.5836699 2.8498535,7.3948009 2.7745399,7.2921619 2.7153437,7.2465943 2.6227315,7.1625553 2.4634605,7.0518669 2.2780695,7.0141496 2.0930216,6.9719586 c 0,0 -0.3341945,0.231827 -0.3341945,0.231827 v 0 c 0.1787749,0.03858 0.3581436,0.072682 0.5135489,0.1762223 0.088972,0.077993 0.1511518,0.1245637 0.2231997,0.220779 0.1390689,0.1857177 0.2166817,0.4108887 0.3003182,0.624296 0.1264718,0.3348803 0.2697166,0.6706367 0.5217342,0.9323297 0.1183552,0.100091 0.1682529,0.1541126 0.3090385,0.2248183 0.2667884,0.1339873 0.574349,0.155689 0.867174,0.1514683 0.3469447,-0.021467 0.705111,-0.03296 1.032205,-0.1625303 0,0 0.3362523,-0.2664747 0.3362523,-0.2664747 z"
     id="path113"
     style="fill:#ffffff;stroke:url(#linearGradient205);stroke-width:0.666667;fill-opacity:1" />
  <path
     d="m 24.5625,4.7226562 -1.074219,0.625 c 0.0727,0.1168291 0.144098,0.2327798 0.216797,0.3496094 0.132717,0.291213 0.247511,0.5023586 0.31836,0.8183594 0.13628,0.6078483 0.0381,1.2411583 -0.06641,1.84375 -0.11487,0.5257425 -0.248202,1.0362651 -0.419922,1.546875 -0.09106,0.270759 -0.29373,0.810349 -0.371093,1.083984 -0.02813,0.09949 -0.04844,0.201635 -0.07031,0.302735 0.334206,0.04498 0.672813,0.05379 1.019531,0 0.0027,-4.23e-4 0.0051,-0.0015 0.0078,-0.002 0.0064,-0.103345 0.01323,-0.207203 0.01953,-0.310547 0.04285,-0.173412 0.0762,-0.348264 0.126953,-0.519531 0.07224,-0.243789 0.29618,-0.8313691 0.376953,-1.0722661 0.17286,-0.5155512 0.304799,-1.0336764 0.419922,-1.5644531 0.102296,-0.6157165 0.200501,-1.2651859 0.05469,-1.8847657 C 25.050674,5.6402163 24.910737,5.3653204 24.785156,5.0878906 24.710656,4.9660663 24.637002,4.8444803 24.5625,4.7226562 Z M 23.076172,11.375 c -0.01149,0.0535 -0.02478,0.106872 -0.03711,0.160156 -0.0072,0.169239 -0.03751,0.339182 -0.02148,0.507813 0.01293,0.136098 0.06051,0.268072 0.107422,0.396484 0.21399,0.585757 0.608332,0.958663 1.144531,1.257813 0.1731,0.08086 0.343423,0.168108 0.519531,0.242187 0.204756,0.08613 0.413135,0.160206 0.621094,0.238281 0.86396,0.32435 1.736057,0.624215 2.607422,0.927735 L 29.0625,14.394531 c -1.103956,-0.328833 -2.211646,-0.668266 -3.269531,-1.128906 -0.170798,-0.07437 -0.336099,-0.16325 -0.503907,-0.244141 -0.493408,-0.277863 -0.886107,-0.654831 -1.078124,-1.197265 -0.04328,-0.122256 -0.08715,-0.245735 -0.09766,-0.375 -0.0019,-0.02335 0.004,-0.04694 0.0039,-0.07031 -0.354006,0.05321 -0.699719,0.04269 -1.041016,-0.0039 z"
     transform="scale(0.33333333)"
     style="fill:#ffffff;fill-opacity:1;stroke:url(#linearGradient213);stroke-width:2"
     id="path115" />
  <path
     d="m 14.966797,5.2140853 c -0.01058,-0.2038464 0.007,-0.408013 0.06575,-0.6041007 0.013,-0.043402 0.0302,-0.085433 0.0453,-0.12815 0.01939,-0.038191 0.03574,-0.078089 0.05818,-0.114573 0.03372,-0.05482 0.106459,-0.142506 0.155417,-0.1844916 0.0311,-0.02667 0.135516,-0.092068 0.100701,-0.070471 -0.305768,0.18968 -0.264894,0.1601263 -0.04467,0.076442 0.430998,-0.1387816 0.755472,-0.302061 1.13972,-0.566585 0.06144,-0.042298 0.114905,-0.096513 0.162096,-0.1542813 0.0507,-0.062067 0.0863,-0.1350729 0.129446,-0.2026094 0.07432,-0.1687914 0.132171,-0.2747977 0.168435,-0.4571235 0.06593,-0.3314876 0.01259,-0.6668331 -0.03817,-0.9953752 -0.01346,-0.069682 -0.02692,-0.1393631 -0.04038,-0.2090446 0,0 -0.356765,0.1907713 -0.356765,0.1907713 v 0 c 0.01429,0.068617 0.02858,0.1372332 0.04287,0.2058498 0.05252,0.3237951 0.100518,0.652964 0.03016,0.9790766 -0.04047,0.1875868 -0.09269,0.2737614 -0.173362,0.4465323 -0.04507,0.064917 -0.08321,0.1352264 -0.135195,0.194751 -0.04853,0.055576 -0.159259,0.074665 -0.164351,0.1482734 -0.0041,0.058535 0.211111,-0.1024294 0.159278,-0.074933 -0.192024,0.1018634 -0.395725,0.174816 -0.601635,0.2428574 -0.314771,0.11157 -0.214845,0.066251 -0.664673,0.3292736 -0.06643,0.038841 -0.133066,0.109934 -0.179283,0.1702124 -0.07086,0.092415 -0.07402,0.1150446 -0.12345,0.2216543 -0.01408,0.043566 -0.03001,0.086575 -0.04224,0.1306967 -0.05609,0.2024006 -0.07277,0.4106379 -0.07498,0.6198779 0,0 0.381788,-0.1945306 0.381788,-0.1945306 z"
     id="path117"
     style="fill:#ffffff;stroke:url(#linearGradient221);stroke-width:0.666667;fill-opacity:1" />
  <path
     d="m 18.4871,9.5583436 c 0.21493,0.064593 0.430984,0.1284126 0.654778,0.154709 0.06363,0.00748 0.127736,0.00999 0.191603,0.014983 0.07138,-0.00441 0.143207,-0.00408 0.214131,-0.013243 0.438368,-0.056623 0.809632,-0.2761954 1.177942,-0.5097027 0.06166,-0.039095 0.114486,-0.090644 0.171729,-0.1359657 0.05157,-0.048579 0.104291,-0.095972 0.15472,-0.1457373 0.126463,-0.1247997 0.144873,-0.1492513 0.254875,-0.2830147 0.04184,-0.050881 0.149989,-0.1878063 0.19676,-0.2396576 0.0295,-0.032703 0.0617,-0.06287 0.09255,-0.094305 0.08886,-0.080436 0.186323,-0.149567 0.285453,-0.2164097 0,0 -0.390212,0.153481 -0.390212,0.153481 v 0 c -0.09703,0.069065 -0.193088,0.139613 -0.278808,0.2228253 -0.231973,0.2492613 -0.420617,0.5387217 -0.690109,0.75253 -0.05809,0.043989 -0.159136,0.060689 -0.174277,0.131967 -0.01296,0.061002 0.22696,-0.095164 0.164984,-0.088221 -0.07389,0.00828 -0.133786,0.065252 -0.202971,0.092477 -0.206687,0.081332 -0.422637,0.1318566 -0.645278,0.1359266 -0.06254,-0.00453 -0.125318,-0.00646 -0.187614,-0.013577 -0.218881,-0.025 -0.432656,-0.083857 -0.638068,-0.161987 0,0 -0.352184,0.2429223 -0.352184,0.2429223 z"
     id="path119"
     style="fill:#ffffff;stroke:url(#linearGradient229);stroke-width:0.666667;fill-opacity:1" />
  <path
     d="m 18.199544,15.030202 c 0.271365,0.0908 0.529078,0.216516 0.76965,0.371332 0.06036,0.03884 0.118522,0.081 0.177783,0.121498 0.210418,0.152599 0.41276,0.32158 0.57274,0.528204 0.08591,0.110951 0.109267,0.163093 0.178307,0.285682 0.114903,0.191832 0.179253,0.447055 0.389645,0.563599 0.198567,0.109994 0.383511,0.110442 0.609047,0.14473 0.629303,0.05278 0.311592,0.03379 0.953178,0.05622 0,0 0.297705,-0.214707 0.297705,-0.214707 v 0 c -0.634591,-0.02224 -0.321812,-0.0015 -0.93843,-0.06093 -0.20027,-0.0347 -0.392992,-0.04471 -0.573874,-0.14284 -0.206949,-0.112275 -0.270435,-0.362573 -0.382081,-0.550543 -0.07238,-0.12971 -0.09147,-0.176011 -0.182956,-0.292602 -0.163616,-0.208505 -0.370332,-0.378056 -0.582728,-0.534052 -0.05925,-0.04145 -0.117298,-0.08469 -0.177763,-0.124355 -0.236933,-0.155433 -0.491263,-0.282436 -0.754323,-0.387004 0,0 -0.3559,0.235766 -0.3559,0.235766 z"
     id="path121"
     style="fill:#ffffff;stroke:url(#linearGradient237);stroke-width:0.666667;fill-opacity:1" />
  <path
     d="m 14.576762,19.277652 c -0.02348,0.263108 -0.04271,0.526511 -0.05846,0.790199 0.0031,0.149202 -0.03907,0.309002 0.01223,0.454245 0.03833,0.108513 0.06083,0.112643 0.142851,0.200635 0.168191,0.167479 0.401962,0.244889 0.581471,0.396504 0.02894,0.02444 0.05362,0.05353 0.08044,0.08029 0.05279,0.06418 0.100752,0.116412 0.141451,0.189364 0.09302,0.166739 0.130607,0.391207 0.166626,0.576509 0.0326,0.213694 0.0184,0.110092 0.04319,0.310727 0,0 0.365952,-0.19266 0.365952,-0.19266 v 0 c -0.02906,-0.200191 -0.01317,-0.09661 -0.04805,-0.310693 -0.03557,-0.190688 -0.07216,-0.4239 -0.16761,-0.59523 -0.03715,-0.06668 -0.09817,-0.137316 -0.145458,-0.196153 -0.02828,-0.02851 -0.05426,-0.05949 -0.08483,-0.08553 -0.177334,-0.151084 -0.411716,-0.222357 -0.578105,-0.388826 -0.02841,-0.03095 -0.06128,-0.05834 -0.08524,-0.09286 -0.106634,-0.153621 -0.05102,-0.360809 -0.05429,-0.532618 0.01322,-0.26476 0.03024,-0.529843 0.07227,-0.791857 0,0 -0.384449,0.187955 -0.384449,0.187955 z"
     id="path125"
     style="fill:#ffffff;stroke:url(#linearGradient245);stroke-width:0.666667;fill-opacity:1" />
  <path
     d="m 8.6210162,19.178238 c 0.050801,0.171988 0.082307,0.34891 0.1051614,0.526575 0.00662,0.05144 0.01534,0.102795 0.017417,0.154618 0.0021,0.05203 -0.0033,0.104089 -0.00496,0.156133 -0.021797,0.123332 -0.04271,0.25821 -0.1330253,0.353897 -0.02777,0.02942 -0.062585,0.05152 -0.096389,0.07375 -0.034163,0.02246 -0.1400467,0.08404 -0.106997,0.05997 0.075415,-0.05493 0.156324,-0.101884 0.234486,-0.152826 -0.1109554,0.04772 -0.2313947,0.06664 -0.3431117,0.112031 -0.1635033,0.06644 -0.4916416,0.29274 -0.5335063,0.323769 -0.028623,0.02121 -0.038799,0.05976 -0.058198,0.08965 -0.01385,0.03613 -0.03173,0.07097 -0.041549,0.108397 -0.0727,0.277162 0.039398,0.648432 0.107545,0.91781 0.02057,0.0643 0.041138,0.128591 0.061707,0.192886 0,0 0.35581,-0.19559 0.35581,-0.19559 v 0 c -0.02079,-0.06317 -0.041583,-0.126344 -0.062374,-0.189516 -0.066458,-0.26088 -0.1699976,-0.634184 -0.082883,-0.900411 0.011483,-0.03509 0.030967,-0.06704 0.04645,-0.100558 0.1292384,-0.16621 0.084125,-0.08484 -0.2170706,0.06268 -0.032283,0.01581 0.061587,-0.03743 0.094356,-0.05221 0.1112587,-0.05017 0.2338017,-0.06588 0.3465647,-0.111836 0.069038,-0.03651 0.5537173,-0.251 0.676899,-0.40669 0.083484,-0.105515 0.100966,-0.243268 0.11869,-0.371291 9e-4,-0.0538 0.00535,-0.107666 0.00267,-0.161411 -0.0026,-0.05206 -0.011743,-0.103595 -0.018437,-0.15529 -0.023537,-0.181818 -0.054586,-0.36251 -0.095985,-0.541153 0,0 -0.3732783,0.206617 -0.3732783,0.206617 z"
     id="path127"
     style="fill:#ffffff;stroke:url(#linearGradient253);stroke-width:0.666667;fill-opacity:1" />
  <path
     d="m 4.637409,15.069304 c -0.1234287,0.190154 -0.2607807,0.374748 -0.425658,0.531493 -0.042962,0.04084 -0.090037,0.07713 -0.135056,0.11569 -0.3800504,0.237541 0.054435,-0.01692 0.076455,-0.03405 0.036462,-0.02837 -0.08314,0.04062 -0.1263743,0.05689 -0.152487,0.0574 -0.254203,0.06236 -0.4140417,0.06494 -0.195315,-0.0069 -0.3819943,-0.07905 -0.5759308,-0.09459 -0.1433314,-0.01148 -0.1573292,6e-4 -0.2980312,0.02634 -0.3236626,0.110503 -0.6414519,0.287451 -0.8676661,0.54814 -0.073226,0.08439 -0.099174,0.129183 -0.1593969,0.21971 -0.083826,0.147955 -0.1435455,0.307631 -0.2141051,0.46205 -0.011792,0.01907 -0.023583,0.03814 -0.035375,0.05721 0,0 0.387678,-0.172546 0.387678,-0.172546 v 0 c 0.010971,-0.02024 0.021941,-0.04048 0.032912,-0.06071 0.068336,-0.151792 0.1252177,-0.30934 0.2105898,-0.452799 0.079039,-0.115877 0.1600229,-0.22533 0.266976,-0.317923 0.039974,-0.03461 0.1773193,-0.10954 0.1261769,-0.09612 -0.080008,0.02099 -0.1530222,0.06782 -0.2172014,0.120004 -0.039186,0.03186 0.093477,-0.03827 0.1402148,-0.05741 0.1316308,-0.03058 0.1526749,-0.04547 0.2885185,-0.03763 0.047132,0.0027 0.093593,0.01264 0.1401197,0.02065 0.1466945,0.02525 0.2912274,0.06324 0.4395751,0.07897 0.1238474,0.002 0.1644954,0.0091 0.2867358,-0.01434 0.079006,-0.01515 0.1966976,-0.05242 0.2677393,-0.09116 0.418237,-0.228072 0.3663807,-0.197692 0.6234517,-0.379667 0.04452,-0.0398 0.090909,-0.0776 0.1335583,-0.119396 0.1671487,-0.163805 0.3064337,-0.353567 0.4405566,-0.544372 0,0 -0.3924213,0.170636 -0.3924213,0.170636 z"
     id="path129"
     style="fill:#ffffff;stroke:url(#linearGradient261);stroke-width:0.666667;fill-opacity:1" />
  <ellipse
     style="fill:#ffff00;fill-rule:evenodd;stroke-width:0.666667"
     id="path28-1"
     cx="11.971085"
     cy="12"
     rx="5.4072289"
     ry="4.4530115" />
  <ellipse
     ry="4.0915656"
     rx="5.0313253"
     cy="12.014458"
     cx="11.94217"
     id="path28-1-1"
     style="fill:url(#linearGradient463);fill-opacity:1;fill-rule:evenodd;stroke:none;stroke-width:0.616426" />
</svg>
