<?xml version="1.0" encoding="UTF-8" standalone="no"?>
<svg
   xmlns:dc="http://purl.org/dc/elements/1.1/"
   xmlns:cc="http://creativecommons.org/ns#"
   xmlns:rdf="http://www.w3.org/1999/02/22-rdf-syntax-ns#"
   xmlns:svg="http://www.w3.org/2000/svg"
   xmlns="http://www.w3.org/2000/svg"
   xmlns:sodipodi="http://sodipodi.sourceforge.net/DTD/sodipodi-0.dtd"
   xmlns:inkscape="http://www.inkscape.org/namespaces/inkscape"
   inkscape:version="1.0 (4035a4fb49, 2020-05-01)"
   sodipodi:docname="tornado.svg"
   id="svg22"
   version="1.1"
   class="feather feather-cloud"
   stroke-linejoin="round"
   stroke-linecap="round"
   stroke-width="2"
   stroke="#787878"
   fill="none"
   viewBox="0 0 24 24"
   height="72"
   width="72">
  <metadata
     id="metadata28">
    <rdf:RDF>
      <cc:Work
         rdf:about="">
        <dc:format>image/svg+xml</dc:format>
        <dc:type
           rdf:resource="http://purl.org/dc/dcmitype/StillImage" />
        <dc:title></dc:title>
      </cc:Work>
    </rdf:RDF>
  </metadata>
  <defs
     id="defs26" />
  <sodipodi:namedview
     inkscape:current-layer="svg22"
     inkscape:window-maximized="1"
     inkscape:window-y="-9"
     inkscape:window-x="-9"
     inkscape:cy="36"
     inkscape:cx="36"
     inkscape:zoom="11.527778"
     showgrid="false"
     id="namedview24"
     inkscape:window-height="1001"
     inkscape:window-width="1920"
     inkscape:pageshadow="2"
     inkscape:pageopacity="0"
     guidetolerance="10"
     gridtolerance="10"
     objecttolerance="10"
     borderopacity="1"
     bordercolor="#666666"
     pagecolor="#ffffff" />
  <ellipse
     ry="0.50602406"
     rx="1.0554217"
     cy="20.804819"
     cx="13.40241"
     id="path108"
     style="fill:#280b0b;stroke-width:0.666667" />
  <ellipse
     ry="0.53493977"
     rx="1.7060242"
     cy="19.966265"
     cx="13.040964"
     id="path110"
     style="fill:#280b0b;stroke-width:0.666667" />
  <ellipse
     ry="0.70843369"
     rx="2.6313252"
     cy="19.06988"
     cx="13.966266"
     id="path112"
     style="fill:#280b0b;stroke-width:0.666667" />
  <ellipse
     ry="0.9542169"
     rx="3.3686745"
     cy="18.043373"
     cx="13.46024"
     id="path114"
     style="fill:#280b0b;stroke-width:0.666667" />
  <ellipse
     ry="1.0409639"
     rx="4.1349397"
     cy="17.031326"
     cx="12.867471"
     id="path116"
     style="fill:#280b0b;stroke-width:0.666667" />
  <ellipse
     ry="1.3590361"
     rx="4.9879518"
     cy="15.787951"
     cx="12.014458"
     id="path118"
     style="fill:#280b0b;stroke-width:0.666667" />
  <ellipse
     ry="1.5614457"
     rx="5.7253013"
     cy="14.718073"
     cx="12.375903"
     id="path120"
     style="fill:#280b0b;stroke-width:0.666667" />
  <ellipse
     ry="1.7060242"
     rx="6.4915662"
     cy="13.73494"
     cx="11.204819"
     id="path130"
     style="fill:#280b0b;stroke-width:0.666667" />
  <ellipse
     ry="2.0819278"
     rx="7.951807"
     cy="12.346989"
     cx="10.87229"
     id="path132"
     style="fill:#280b0b;stroke-width:0.666667" />
  <ellipse
     ry="2.2554216"
     rx="9.0650606"
     cy="11.161446"
     cx="10.742167"
     id="path136"
     style="fill:#280b0b;stroke-width:0.666667" />
  <path
     transform="matrix(1.8818873,0,0,0.46386931,-5.9838129,6.3759451)"
     d="M 9.1951809,8.1831331 C 9.5097843,8.2150286 9.3074006,8.6229483 9.1421685,8.7060247 8.6943996,8.9311564 8.2372801,8.4953063 8.1493978,8.0771083 7.9921971,7.3290503 8.6483471,6.691038 9.3542181,6.6144585 10.390112,6.502075 11.230372,7.403612 11.286747,8.3951827 11.361886,9.7167906 10.206943,10.764891 8.9301189,10.797591 7.3233662,10.83874 6.0651257,9.4269851 6.0578317,7.8650587 6.0489977,5.9733566 7.7193116,4.503791 9.5662677,4.5228924 11.742842,4.5454028 13.42443,6.4752896 13.378313,8.6072323 13.32507,11.068644 11.13497,12.962702 8.7180693,12.889157 5.9718337,12.805591 3.8650027,10.354846 3.9662656,7.6530092 4.0798673,4.6219565 6.7915594,2.3021346 9.7783173,2.4313263 13.094185,2.5747536 15.627158,5.5476153 15.469879,8.8192819"
     sodipodi:t0="0"
     sodipodi:argument="-18.748518"
     sodipodi:radius="6.3068633"
     sodipodi:revolution="3"
     sodipodi:expansion="1"
     sodipodi:cy="8.1831331"
     sodipodi:cx="9.1951809"
     id="path142"
     style="fill:#280b0b;stroke-width:0.666667"
     sodipodi:type="spiral" />
  <path
     style="stroke-width:0.126024"
     d="M 9.4893854,19.829156 A 0.2564446,0.24772805 0 1 0 9.3085919,20.251532 H 10.462593 M 9.1047184,21.664821 A 0.2564446,0.24772805 0 1 1 8.9239251,21.242445 H 10.462593 M 8.4456559,20.218089 a 0.32055576,0.30966008 0 1 0 -0.2269535,0.5289 h 2.2438906"
     id="path2" />
  <path
     style="stroke-width:0.154342"
     d="m 17.868255,19.424791 a 0.29978596,0.31784596 0 1 1 0.211349,0.541927 h -1.349037 m 1.587367,1.813312 a 0.29978596,0.31784596 0 1 0 0.211349,-0.541927 h -1.798716 m 2.357817,-1.314293 a 0.37473248,0.39730747 0 1 1 0.265311,0.678601 h -2.623128"
     id="path2-6" />
</svg>
